%TF.GenerationSoftware,KiCad,Pcbnew,9.0.8+dfsg-1*%
%TF.CreationDate,2026-10-03T00:29:59-07:00*%
%TF.ProjectId,vagabond1,76616761-626f-46e6-9431-2e6b69636164,rev?*%
%TF.SameCoordinates,Original*%
%TF.FileFunction,Copper,L2,Bot*%
%TF.FilePolarity,Positive*%
%FSLAX46Y46*%
G04 Gerber Fmt 4.6, Leading zero omitted, Abs format (unit mm)*
G04 Created by KiCad (PCBNEW 9.0.8+dfsg-1) date 2026-10-03 00:29:59*
%MOMM*%
%LPD*%
G01*
G04 APERTURE LIST*
%TA.AperFunction,ComponentPad*%
%ADD10R,1.700000X1.700000*%
%TD*%
%TA.AperFunction,ComponentPad*%
%ADD11O,1.700000X1.700000*%
%TD*%
%TA.AperFunction,ComponentPad*%
%ADD12C,1.700000*%
%TD*%
%TA.AperFunction,ViaPad*%
%ADD13C,0.520000*%
%TD*%
%TA.AperFunction,ViaPad*%
%ADD14C,0.700000*%
%TD*%
%TA.AperFunction,Conductor*%
%ADD15C,0.200000*%
%TD*%
%TA.AperFunction,Conductor*%
%ADD16C,0.400000*%
%TD*%
G04 APERTURE END LIST*
D10*
%TO.P,J4,8,Pin_8*%
%TO.N,VSYS*%
X146710000Y-107295000D03*
%TO.P,J4,7,Pin_7*%
%TO.N,GND*%
X146710000Y-104755000D03*
D11*
%TO.P,J4,6,Pin_6*%
%TO.N,3V3*%
X146710000Y-102215000D03*
%TO.P,J4,5,Pin_5*%
%TO.N,GPS_VCC*%
X146710000Y-99675000D03*
%TO.P,J4,4,Pin_4*%
X146710000Y-97135000D03*
%TO.P,J4,3,Pin_3*%
%TO.N,RST*%
X146710000Y-94595000D03*
%TO.P,J4,2,Pin_2*%
%TO.N,GPS_VBAT*%
X146710000Y-92055000D03*
D12*
%TO.P,J4,1,Pin_1*%
%TO.N,VSENSE*%
X146710000Y-89515000D03*
%TD*%
D11*
%TO.P,J3,8,Pin_8*%
%TO.N,SYNTH_VCC*%
X131470000Y-107295000D03*
%TO.P,J3,7,Pin_7*%
X131470000Y-104755000D03*
%TO.P,J3,6,Pin_6*%
X131470000Y-102215000D03*
%TO.P,J3,5,Pin_5*%
%TO.N,unconnected-(J3-Pin_5-Pad5)*%
X131470000Y-99675000D03*
%TO.P,J3,4,Pin_4*%
%TO.N,SDA*%
X131470000Y-97135000D03*
%TO.P,J3,3,Pin_3*%
%TO.N,SCL*%
X131470000Y-94595000D03*
%TO.P,J3,2,Pin_2*%
%TO.N,GPS_RX*%
X131470000Y-92055000D03*
D12*
%TO.P,J3,1,Pin_1*%
%TO.N,GPS_TX*%
X131470000Y-89515000D03*
%TD*%
D13*
%TO.N,GND*%
X132600000Y-108400000D03*
X133500000Y-102300000D03*
%TO.N,SDA*%
X137566000Y-105136000D03*
%TO.N,SCL*%
X137566000Y-104374000D03*
D14*
%TO.N,VSYS*%
X145694000Y-90785000D03*
X135788000Y-87610000D03*
D13*
%TO.N,RST*%
X145440000Y-103358000D03*
D14*
%TO.N,GND*%
X142900000Y-88499000D03*
X135788000Y-89388000D03*
X139090000Y-103104000D03*
X143789000Y-104882000D03*
X138455000Y-98786000D03*
D13*
X136550000Y-105898000D03*
D14*
X134772000Y-89388000D03*
X132613000Y-100564000D03*
X140360000Y-98786000D03*
D13*
X137058000Y-108438000D03*
D14*
X136042000Y-92944000D03*
D13*
X135280000Y-105898000D03*
D14*
X141376000Y-92944000D03*
X142900000Y-89388000D03*
X142519000Y-98786000D03*
X142646000Y-92944000D03*
X141376000Y-102342000D03*
X133121000Y-99040000D03*
%TD*%
D15*
%TO.N,SDA*%
X137566000Y-105136000D02*
X137536040Y-105136000D01*
X137536040Y-105136000D02*
X136804000Y-104403960D01*
X137566000Y-105136000D02*
X137312000Y-105136000D01*
X136804000Y-104403960D02*
X136804000Y-101580000D01*
X136804000Y-101580000D02*
X132359000Y-97135000D01*
X132359000Y-97135000D02*
X131470000Y-97135000D01*
%TO.N,unconnected-(J3-Pin_5-Pad5)*%
X131851000Y-99675000D02*
X131470000Y-99675000D01*
%TO.N,RST*%
X145440000Y-103358000D02*
X145440000Y-95865000D01*
X145440000Y-95865000D02*
X146710000Y-94595000D01*
%TO.N,SCL*%
X137566000Y-104374000D02*
X137566000Y-99802000D01*
X137566000Y-99802000D02*
X132359000Y-94595000D01*
X132359000Y-94595000D02*
X131470000Y-94595000D01*
D16*
%TO.N,VSYS*%
X145460000Y-90551000D02*
X145460000Y-89027000D01*
X145694000Y-90785000D02*
X145460000Y-90551000D01*
X144780000Y-91699000D02*
X145694000Y-90785000D01*
X146710000Y-107295000D02*
X144780000Y-105365000D01*
X144780000Y-105365000D02*
X144780000Y-91699000D01*
X144043000Y-87610000D02*
X135788000Y-87610000D01*
X145460000Y-89027000D02*
X144043000Y-87610000D01*
%TD*%
%TA.AperFunction,Conductor*%
%TO.N,GND*%
G36*
X135232179Y-87194407D02*
G01*
X135268143Y-87243907D01*
X135268143Y-87305093D01*
X135259727Y-87323994D01*
X135228423Y-87378216D01*
X135187500Y-87530943D01*
X135187500Y-87689057D01*
X135228423Y-87841784D01*
X135307480Y-87978716D01*
X135419284Y-88090520D01*
X135556216Y-88169577D01*
X135708943Y-88210500D01*
X135708945Y-88210500D01*
X135867055Y-88210500D01*
X135867057Y-88210500D01*
X136019784Y-88169577D01*
X136156716Y-88090520D01*
X136157741Y-88089494D01*
X136158668Y-88089022D01*
X136161866Y-88086569D01*
X136162320Y-88087161D01*
X136212256Y-88061719D01*
X136227743Y-88060500D01*
X143815389Y-88060500D01*
X143873580Y-88079407D01*
X143885393Y-88089496D01*
X144980504Y-89184607D01*
X145008281Y-89239124D01*
X145009500Y-89254611D01*
X145009500Y-90610309D01*
X145033713Y-90700673D01*
X145033712Y-90700673D01*
X145041638Y-90730251D01*
X145038437Y-90791352D01*
X145016016Y-90825878D01*
X144419511Y-91422385D01*
X144419507Y-91422390D01*
X144360200Y-91525112D01*
X144360200Y-91525113D01*
X144360201Y-91525114D01*
X144329500Y-91639691D01*
X144329500Y-105424309D01*
X144351255Y-105505500D01*
X144351254Y-105505500D01*
X144360200Y-105538886D01*
X144360202Y-105538890D01*
X144419507Y-105641609D01*
X144419509Y-105641611D01*
X144419511Y-105641614D01*
X145580505Y-106802608D01*
X145608281Y-106857123D01*
X145609500Y-106872610D01*
X145609500Y-108169672D01*
X145609501Y-108169684D01*
X145624033Y-108242736D01*
X145624035Y-108242742D01*
X145679397Y-108325599D01*
X145679400Y-108325602D01*
X145743456Y-108368402D01*
X145762260Y-108380966D01*
X145817808Y-108392015D01*
X145835315Y-108395498D01*
X145835320Y-108395498D01*
X145835326Y-108395500D01*
X146410500Y-108395500D01*
X146468691Y-108414407D01*
X146504655Y-108463907D01*
X146509500Y-108494500D01*
X146509500Y-108900500D01*
X146490593Y-108958691D01*
X146441093Y-108994655D01*
X146410500Y-108999500D01*
X131769500Y-108999500D01*
X131711309Y-108980593D01*
X131675345Y-108931093D01*
X131670500Y-108900500D01*
X131670500Y-108458915D01*
X131689407Y-108400724D01*
X131738904Y-108364761D01*
X131892445Y-108314873D01*
X132046788Y-108236232D01*
X132186928Y-108134414D01*
X132309414Y-108011928D01*
X132411232Y-107871788D01*
X132489873Y-107717445D01*
X132489874Y-107717440D01*
X132489876Y-107717438D01*
X132543401Y-107552706D01*
X132543402Y-107552702D01*
X132570500Y-107381614D01*
X132570500Y-107208385D01*
X132543402Y-107037297D01*
X132543401Y-107037293D01*
X132489876Y-106872561D01*
X132489874Y-106872558D01*
X132489873Y-106872557D01*
X132489873Y-106872555D01*
X132411232Y-106718212D01*
X132309414Y-106578072D01*
X132186928Y-106455586D01*
X132046788Y-106353768D01*
X132046787Y-106353767D01*
X132046785Y-106353766D01*
X131892441Y-106275125D01*
X131738906Y-106225237D01*
X131689407Y-106189273D01*
X131670500Y-106131083D01*
X131670500Y-105918915D01*
X131689407Y-105860724D01*
X131738904Y-105824761D01*
X131892445Y-105774873D01*
X132046788Y-105696232D01*
X132186928Y-105594414D01*
X132309414Y-105471928D01*
X132411232Y-105331788D01*
X132489873Y-105177445D01*
X132489874Y-105177440D01*
X132489876Y-105177438D01*
X132543401Y-105012706D01*
X132543402Y-105012702D01*
X132570500Y-104841614D01*
X132570500Y-104668385D01*
X132543402Y-104497297D01*
X132543401Y-104497293D01*
X132489876Y-104332561D01*
X132489874Y-104332558D01*
X132489873Y-104332557D01*
X132489873Y-104332555D01*
X132411232Y-104178212D01*
X132309414Y-104038072D01*
X132186928Y-103915586D01*
X132046788Y-103813768D01*
X132046787Y-103813767D01*
X132046785Y-103813766D01*
X131892441Y-103735125D01*
X131738906Y-103685237D01*
X131689407Y-103649273D01*
X131670500Y-103591083D01*
X131670500Y-103378915D01*
X131689407Y-103320724D01*
X131738904Y-103284761D01*
X131892445Y-103234873D01*
X132046788Y-103156232D01*
X132186928Y-103054414D01*
X132309414Y-102931928D01*
X132411232Y-102791788D01*
X132489873Y-102637445D01*
X132489874Y-102637440D01*
X132489876Y-102637438D01*
X132543401Y-102472706D01*
X132543402Y-102472702D01*
X132570500Y-102301614D01*
X132570500Y-102128385D01*
X132543402Y-101957297D01*
X132543401Y-101957293D01*
X132489876Y-101792561D01*
X132489874Y-101792558D01*
X132489873Y-101792557D01*
X132489873Y-101792555D01*
X132411232Y-101638212D01*
X132309414Y-101498072D01*
X132186928Y-101375586D01*
X132046788Y-101273768D01*
X132046787Y-101273767D01*
X132046785Y-101273766D01*
X131892441Y-101195125D01*
X131738906Y-101145237D01*
X131689407Y-101109273D01*
X131670500Y-101051083D01*
X131670500Y-100838915D01*
X131689407Y-100780724D01*
X131738904Y-100744761D01*
X131892445Y-100694873D01*
X132046788Y-100616232D01*
X132186928Y-100514414D01*
X132309414Y-100391928D01*
X132411232Y-100251788D01*
X132489873Y-100097445D01*
X132489874Y-100097440D01*
X132489876Y-100097438D01*
X132543401Y-99932706D01*
X132543402Y-99932702D01*
X132570500Y-99761614D01*
X132570500Y-99588385D01*
X132543402Y-99417297D01*
X132543401Y-99417293D01*
X132489876Y-99252561D01*
X132489874Y-99252558D01*
X132489873Y-99252557D01*
X132489873Y-99252555D01*
X132411232Y-99098212D01*
X132309414Y-98958072D01*
X132186928Y-98835586D01*
X132046788Y-98733768D01*
X132046787Y-98733767D01*
X132046785Y-98733766D01*
X131892441Y-98655125D01*
X131738906Y-98605237D01*
X131689407Y-98569273D01*
X131670500Y-98511083D01*
X131670500Y-98298915D01*
X131689407Y-98240724D01*
X131738904Y-98204761D01*
X131892445Y-98154873D01*
X132046788Y-98076232D01*
X132186928Y-97974414D01*
X132309414Y-97851928D01*
X132355250Y-97788840D01*
X132404749Y-97752877D01*
X132465935Y-97752877D01*
X132505346Y-97777028D01*
X136424504Y-101696185D01*
X136452281Y-101750702D01*
X136453500Y-101766189D01*
X136453500Y-104450103D01*
X136472151Y-104519710D01*
X136477384Y-104539243D01*
X136477385Y-104539244D01*
X136477386Y-104539248D01*
X136523530Y-104619172D01*
X136932505Y-105028147D01*
X136960281Y-105082662D01*
X136961500Y-105098149D01*
X136961500Y-105182144D01*
X136985386Y-105271288D01*
X136985387Y-105271290D01*
X137021042Y-105333046D01*
X137031531Y-105351212D01*
X137096788Y-105416469D01*
X137151101Y-105447827D01*
X137171599Y-105463556D01*
X137213544Y-105505500D01*
X137252546Y-105544502D01*
X137368954Y-105611710D01*
X137498791Y-105646500D01*
X137498792Y-105646500D01*
X137633208Y-105646500D01*
X137633209Y-105646500D01*
X137763046Y-105611710D01*
X137879454Y-105544502D01*
X137974502Y-105449454D01*
X138041710Y-105333046D01*
X138076500Y-105203209D01*
X138076500Y-105068791D01*
X138041710Y-104938954D01*
X137974502Y-104822546D01*
X137974498Y-104822542D01*
X137974496Y-104822538D01*
X137970551Y-104817396D01*
X137972371Y-104815999D01*
X137949182Y-104770487D01*
X137958753Y-104710055D01*
X137971116Y-104693037D01*
X137970551Y-104692604D01*
X137974496Y-104687461D01*
X137974497Y-104687458D01*
X137974502Y-104687454D01*
X138041710Y-104571046D01*
X138076500Y-104441209D01*
X138076500Y-104306791D01*
X138041710Y-104176954D01*
X137974502Y-104060546D01*
X137945495Y-104031539D01*
X137917719Y-103977022D01*
X137916500Y-103961536D01*
X137916500Y-99755857D01*
X137916500Y-99755856D01*
X137892614Y-99666712D01*
X137846470Y-99586788D01*
X132574212Y-94314530D01*
X132560088Y-94306375D01*
X132519149Y-94260905D01*
X132515442Y-94251248D01*
X132489873Y-94172555D01*
X132411232Y-94018212D01*
X132309414Y-93878072D01*
X132186928Y-93755586D01*
X132046788Y-93653768D01*
X132046787Y-93653767D01*
X132046785Y-93653766D01*
X131892441Y-93575125D01*
X131738906Y-93525237D01*
X131689407Y-93489273D01*
X131670500Y-93431083D01*
X131670500Y-93218915D01*
X131689407Y-93160724D01*
X131738904Y-93124761D01*
X131892445Y-93074873D01*
X132046788Y-92996232D01*
X132186928Y-92894414D01*
X132309414Y-92771928D01*
X132411232Y-92631788D01*
X132489873Y-92477445D01*
X132489874Y-92477440D01*
X132489876Y-92477438D01*
X132543401Y-92312706D01*
X132543402Y-92312702D01*
X132570500Y-92141614D01*
X132570500Y-91968385D01*
X132543402Y-91797297D01*
X132543401Y-91797293D01*
X132489876Y-91632561D01*
X132489874Y-91632558D01*
X132489873Y-91632557D01*
X132489873Y-91632555D01*
X132411232Y-91478212D01*
X132309414Y-91338072D01*
X132186928Y-91215586D01*
X132046788Y-91113768D01*
X132046787Y-91113767D01*
X132046785Y-91113766D01*
X131892441Y-91035125D01*
X131738906Y-90985237D01*
X131689407Y-90949273D01*
X131670500Y-90891083D01*
X131670500Y-90678915D01*
X131689407Y-90620724D01*
X131738904Y-90584761D01*
X131892445Y-90534873D01*
X132046788Y-90456232D01*
X132186928Y-90354414D01*
X132309414Y-90231928D01*
X132411232Y-90091788D01*
X132489873Y-89937445D01*
X132489874Y-89937440D01*
X132489876Y-89937438D01*
X132543401Y-89772706D01*
X132543402Y-89772702D01*
X132570500Y-89601614D01*
X132570500Y-89428385D01*
X132543402Y-89257297D01*
X132543401Y-89257293D01*
X132489876Y-89092561D01*
X132489874Y-89092558D01*
X132489873Y-89092557D01*
X132489873Y-89092555D01*
X132411232Y-88938212D01*
X132309414Y-88798072D01*
X132186928Y-88675586D01*
X132046788Y-88573768D01*
X132046787Y-88573767D01*
X132046785Y-88573766D01*
X131892441Y-88495125D01*
X131738906Y-88445237D01*
X131689407Y-88409273D01*
X131670500Y-88351083D01*
X131670500Y-87274500D01*
X131689407Y-87216309D01*
X131738907Y-87180345D01*
X131769500Y-87175500D01*
X135173988Y-87175500D01*
X135232179Y-87194407D01*
G37*
%TD.AperFunction*%
%TA.AperFunction,Conductor*%
G36*
X146087735Y-103123191D02*
G01*
X146133212Y-103156232D01*
X146287555Y-103234873D01*
X146441093Y-103284761D01*
X146490593Y-103320724D01*
X146509500Y-103378915D01*
X146509500Y-106095500D01*
X146504655Y-106110411D01*
X146504655Y-106126093D01*
X146495438Y-106138778D01*
X146490593Y-106153691D01*
X146477907Y-106162907D01*
X146468691Y-106175593D01*
X146453778Y-106180438D01*
X146441093Y-106189655D01*
X146410500Y-106194500D01*
X146287611Y-106194500D01*
X146229420Y-106175593D01*
X146217607Y-106165504D01*
X145259496Y-105207393D01*
X145231719Y-105152876D01*
X145230500Y-105137389D01*
X145230500Y-103959392D01*
X145249407Y-103901201D01*
X145298907Y-103865237D01*
X145355123Y-103863766D01*
X145372791Y-103868500D01*
X145507208Y-103868500D01*
X145507209Y-103868500D01*
X145637046Y-103833710D01*
X145753454Y-103766502D01*
X145848502Y-103671454D01*
X145915710Y-103555046D01*
X145950500Y-103425209D01*
X145950500Y-103290791D01*
X145933918Y-103228906D01*
X145937119Y-103167805D01*
X145975624Y-103120255D01*
X146034724Y-103104419D01*
X146087735Y-103123191D01*
G37*
%TD.AperFunction*%
%TD*%
M02*
