%TF.GenerationSoftware,KiCad,Pcbnew,9.0.8+dfsg-1*%
%TF.CreationDate,2026-10-03T00:29:59-07:00*%
%TF.ProjectId,vagabond1,76616761-626f-46e6-9431-2e6b69636164,rev?*%
%TF.SameCoordinates,Original*%
%TF.FileFunction,Paste,Top*%
%TF.FilePolarity,Positive*%
%FSLAX46Y46*%
G04 Gerber Fmt 4.6, Leading zero omitted, Abs format (unit mm)*
G04 Created by KiCad (PCBNEW 9.0.8+dfsg-1) date 2026-10-03 00:29:59*
%MOMM*%
%LPD*%
G01*
G04 APERTURE LIST*
G04 Aperture macros list*
%AMRoundRect*
0 Rectangle with rounded corners*
0 $1 Rounding radius*
0 $2 $3 $4 $5 $6 $7 $8 $9 X,Y pos of 4 corners*
0 Add a 4 corners polygon primitive as box body*
4,1,4,$2,$3,$4,$5,$6,$7,$8,$9,$2,$3,0*
0 Add four circle primitives for the rounded corners*
1,1,$1+$1,$2,$3*
1,1,$1+$1,$4,$5*
1,1,$1+$1,$6,$7*
1,1,$1+$1,$8,$9*
0 Add four rect primitives between the rounded corners*
20,1,$1+$1,$2,$3,$4,$5,0*
20,1,$1+$1,$4,$5,$6,$7,0*
20,1,$1+$1,$6,$7,$8,$9,0*
20,1,$1+$1,$8,$9,$2,$3,0*%
G04 Aperture macros list end*
%ADD10RoundRect,0.135000X-0.135000X-0.185000X0.135000X-0.185000X0.135000X0.185000X-0.135000X0.185000X0*%
%ADD11RoundRect,0.140000X-0.140000X-0.170000X0.140000X-0.170000X0.140000X0.170000X-0.140000X0.170000X0*%
%ADD12R,0.700000X2.000000*%
%ADD13R,1.100000X0.900000*%
%ADD14R,1.400000X0.300000*%
%ADD15RoundRect,0.225000X-0.250000X0.225000X-0.250000X-0.225000X0.250000X-0.225000X0.250000X0.225000X0*%
%ADD16RoundRect,0.140000X0.170000X-0.140000X0.170000X0.140000X-0.170000X0.140000X-0.170000X-0.140000X0*%
%ADD17RoundRect,0.225000X0.250000X-0.225000X0.250000X0.225000X-0.250000X0.225000X-0.250000X-0.225000X0*%
%ADD18RoundRect,0.225000X-0.225000X-0.250000X0.225000X-0.250000X0.225000X0.250000X-0.225000X0.250000X0*%
%ADD19RoundRect,0.135000X0.135000X0.185000X-0.135000X0.185000X-0.135000X-0.185000X0.135000X-0.185000X0*%
%ADD20RoundRect,0.150000X0.150000X-0.587500X0.150000X0.587500X-0.150000X0.587500X-0.150000X-0.587500X0*%
G04 APERTURE END LIST*
D10*
%TO.C,R1*%
X133490000Y-104500000D03*
X134510000Y-104500000D03*
%TD*%
D11*
%TO.C,C8*%
X133530000Y-103100000D03*
X134490000Y-103100000D03*
%TD*%
D12*
%TO.C,U1*%
X133674000Y-100715000D03*
X134774000Y-100715000D03*
X135874000Y-100715000D03*
X136974000Y-100715000D03*
X138074000Y-100715000D03*
X139174000Y-100715000D03*
X140274000Y-100715000D03*
X141374000Y-100715000D03*
X142474000Y-100715000D03*
X142474000Y-91015000D03*
X141374000Y-91015000D03*
X140274000Y-91015000D03*
X139174000Y-91015000D03*
X138074000Y-91015000D03*
X136974000Y-91015000D03*
X135874000Y-91015000D03*
X134774000Y-91015000D03*
X133674000Y-91015000D03*
%TD*%
D13*
%TO.C,X1*%
X133922000Y-108326000D03*
X135622000Y-108326000D03*
X135622000Y-107026000D03*
X133922000Y-107026000D03*
%TD*%
D14*
%TO.C,U3*%
X140528000Y-103120000D03*
X140528000Y-103620000D03*
X140528000Y-104120000D03*
X140528000Y-104620000D03*
X140528000Y-105120000D03*
X136128000Y-105120000D03*
X136128000Y-104620000D03*
X136128000Y-104120000D03*
X136128000Y-103620000D03*
X136128000Y-103120000D03*
%TD*%
D15*
%TO.C,C1*%
X144678000Y-108324000D03*
X144678000Y-106774000D03*
%TD*%
D16*
%TO.C,C2*%
X144678000Y-97544000D03*
X144678000Y-98504000D03*
%TD*%
D17*
%TO.C,C3*%
X144678000Y-90391000D03*
X144678000Y-91941000D03*
%TD*%
D18*
%TO.C,C4*%
X134531000Y-88118000D03*
X132981000Y-88118000D03*
%TD*%
D15*
%TO.C,C5*%
X144678000Y-101212000D03*
X144678000Y-99662000D03*
%TD*%
D16*
%TO.C,C6*%
X137058000Y-106688000D03*
X137058000Y-107648000D03*
%TD*%
D11*
%TO.C,C7*%
X134462000Y-105644000D03*
X133502000Y-105644000D03*
%TD*%
D19*
%TO.C,R2*%
X143914000Y-89007000D03*
X144934000Y-89007000D03*
%TD*%
%TO.C,R3*%
X143914000Y-87991000D03*
X144934000Y-87991000D03*
%TD*%
D20*
%TO.C,U2*%
X143789000Y-102977000D03*
X144739000Y-104852000D03*
X142839000Y-104852000D03*
%TD*%
M02*
