%TF.GenerationSoftware,KiCad,Pcbnew,9.0.8+dfsg-1*%
%TF.CreationDate,2026-10-03T00:29:59-07:00*%
%TF.ProjectId,vagabond1,76616761-626f-46e6-9431-2e6b69636164,rev?*%
%TF.SameCoordinates,Original*%
%TF.FileFunction,Copper,L1,Top*%
%TF.FilePolarity,Positive*%
%FSLAX46Y46*%
G04 Gerber Fmt 4.6, Leading zero omitted, Abs format (unit mm)*
G04 Created by KiCad (PCBNEW 9.0.8+dfsg-1) date 2026-10-03 00:29:59*
%MOMM*%
%LPD*%
G01*
G04 APERTURE LIST*
G04 Aperture macros list*
%AMRoundRect*
0 Rectangle with rounded corners*
0 $1 Rounding radius*
0 $2 $3 $4 $5 $6 $7 $8 $9 X,Y pos of 4 corners*
0 Add a 4 corners polygon primitive as box body*
4,1,4,$2,$3,$4,$5,$6,$7,$8,$9,$2,$3,0*
0 Add four circle primitives for the rounded corners*
1,1,$1+$1,$2,$3*
1,1,$1+$1,$4,$5*
1,1,$1+$1,$6,$7*
1,1,$1+$1,$8,$9*
0 Add four rect primitives between the rounded corners*
20,1,$1+$1,$2,$3,$4,$5,0*
20,1,$1+$1,$4,$5,$6,$7,0*
20,1,$1+$1,$6,$7,$8,$9,0*
20,1,$1+$1,$8,$9,$2,$3,0*%
G04 Aperture macros list end*
%TA.AperFunction,SMDPad,CuDef*%
%ADD10RoundRect,0.135000X-0.135000X-0.185000X0.135000X-0.185000X0.135000X0.185000X-0.135000X0.185000X0*%
%TD*%
%TA.AperFunction,SMDPad,CuDef*%
%ADD11RoundRect,0.140000X-0.140000X-0.170000X0.140000X-0.170000X0.140000X0.170000X-0.140000X0.170000X0*%
%TD*%
%TA.AperFunction,SMDPad,CuDef*%
%ADD12R,0.700000X2.000000*%
%TD*%
%TA.AperFunction,SMDPad,CuDef*%
%ADD13R,1.100000X0.900000*%
%TD*%
%TA.AperFunction,ComponentPad*%
%ADD14R,1.700000X1.700000*%
%TD*%
%TA.AperFunction,ComponentPad*%
%ADD15O,1.700000X1.700000*%
%TD*%
%TA.AperFunction,ComponentPad*%
%ADD16C,1.700000*%
%TD*%
%TA.AperFunction,SMDPad,CuDef*%
%ADD17R,1.400000X0.300000*%
%TD*%
%TA.AperFunction,SMDPad,CuDef*%
%ADD18RoundRect,0.225000X-0.250000X0.225000X-0.250000X-0.225000X0.250000X-0.225000X0.250000X0.225000X0*%
%TD*%
%TA.AperFunction,SMDPad,CuDef*%
%ADD19RoundRect,0.140000X0.170000X-0.140000X0.170000X0.140000X-0.170000X0.140000X-0.170000X-0.140000X0*%
%TD*%
%TA.AperFunction,SMDPad,CuDef*%
%ADD20RoundRect,0.225000X0.250000X-0.225000X0.250000X0.225000X-0.250000X0.225000X-0.250000X-0.225000X0*%
%TD*%
%TA.AperFunction,SMDPad,CuDef*%
%ADD21RoundRect,0.225000X-0.225000X-0.250000X0.225000X-0.250000X0.225000X0.250000X-0.225000X0.250000X0*%
%TD*%
%TA.AperFunction,SMDPad,CuDef*%
%ADD22R,2.000000X2.000000*%
%TD*%
%TA.AperFunction,SMDPad,CuDef*%
%ADD23RoundRect,0.135000X0.135000X0.185000X-0.135000X0.185000X-0.135000X-0.185000X0.135000X-0.185000X0*%
%TD*%
%TA.AperFunction,SMDPad,CuDef*%
%ADD24RoundRect,0.150000X0.150000X-0.587500X0.150000X0.587500X-0.150000X0.587500X-0.150000X-0.587500X0*%
%TD*%
%TA.AperFunction,ViaPad*%
%ADD25C,0.520000*%
%TD*%
%TA.AperFunction,ViaPad*%
%ADD26C,0.700000*%
%TD*%
%TA.AperFunction,Conductor*%
%ADD27C,0.200000*%
%TD*%
%TA.AperFunction,Conductor*%
%ADD28C,0.400000*%
%TD*%
G04 APERTURE END LIST*
D10*
%TO.P,R1,1*%
%TO.N,SYNTH_VCC*%
X133490000Y-104500000D03*
%TO.P,R1,2*%
%TO.N,SCL*%
X134510000Y-104500000D03*
%TD*%
D11*
%TO.P,C8,1*%
%TO.N,GND*%
X133530000Y-103100000D03*
%TO.P,C8,2*%
%TO.N,SYNTH_VCC*%
X134490000Y-103100000D03*
%TD*%
D12*
%TO.P,U1,1,GND*%
%TO.N,GND*%
X133674000Y-100715000D03*
%TO.P,U1,2,TX*%
%TO.N,GPS_RX*%
X134774000Y-100715000D03*
%TO.P,U1,3,RX*%
%TO.N,GPS_TX*%
X135874000Y-100715000D03*
%TO.P,U1,4,1PPS*%
%TO.N,unconnected-(U1-1PPS-Pad4)*%
X136974000Y-100715000D03*
%TO.P,U1,5,EN*%
%TO.N,unconnected-(U1-EN-Pad5)*%
X138074000Y-100715000D03*
%TO.P,U1,6,VBAT*%
%TO.N,GPS_VBAT*%
X139174000Y-100715000D03*
%TO.P,U1,7,NC*%
%TO.N,GND*%
X140274000Y-100715000D03*
%TO.P,U1,8,VCC*%
%TO.N,GPS_VCC*%
X141374000Y-100715000D03*
%TO.P,U1,9,RESET*%
%TO.N,unconnected-(U1-RESET-Pad9)*%
X142474000Y-100715000D03*
%TO.P,U1,10,GND*%
%TO.N,GND*%
X142474000Y-91015000D03*
%TO.P,U1,11,RF_IN*%
%TO.N,GPS_ANT*%
X141374000Y-91015000D03*
%TO.P,U1,12,GND*%
%TO.N,GND*%
X140274000Y-91015000D03*
%TO.P,U1,13,NC*%
%TO.N,unconnected-(U1-NC-Pad13)*%
X139174000Y-91015000D03*
%TO.P,U1,14,VCC_RF*%
%TO.N,unconnected-(U1-VCC_RF-Pad14)*%
X138074000Y-91015000D03*
%TO.P,U1,15,NC*%
%TO.N,unconnected-(U1-NC-Pad15)*%
X136974000Y-91015000D03*
%TO.P,U1,16,SDA*%
%TO.N,unconnected-(U1-SDA-Pad16)*%
X135874000Y-91015000D03*
%TO.P,U1,17,SCL*%
%TO.N,unconnected-(U1-SCL-Pad17)*%
X134774000Y-91015000D03*
%TO.P,U1,18,NC*%
%TO.N,unconnected-(U1-NC-Pad18)*%
X133674000Y-91015000D03*
%TD*%
D13*
%TO.P,X1,1,NC*%
%TO.N,GND*%
X133922000Y-108326000D03*
%TO.P,X1,2,GND*%
X135622000Y-108326000D03*
%TO.P,X1,3,OUT*%
%TO.N,Net-(X1-OUT)*%
X135622000Y-107026000D03*
%TO.P,X1,4,Vcc*%
%TO.N,SYNTH_VCC*%
X133922000Y-107026000D03*
%TD*%
D14*
%TO.P,J4,8,Pin_8*%
%TO.N,VSYS*%
X146710000Y-107295000D03*
%TO.P,J4,7,Pin_7*%
%TO.N,GND*%
X146710000Y-104755000D03*
D15*
%TO.P,J4,6,Pin_6*%
%TO.N,3V3*%
X146710000Y-102215000D03*
%TO.P,J4,5,Pin_5*%
%TO.N,GPS_VCC*%
X146710000Y-99675000D03*
%TO.P,J4,4,Pin_4*%
X146710000Y-97135000D03*
%TO.P,J4,3,Pin_3*%
%TO.N,RST*%
X146710000Y-94595000D03*
%TO.P,J4,2,Pin_2*%
%TO.N,GPS_VBAT*%
X146710000Y-92055000D03*
D16*
%TO.P,J4,1,Pin_1*%
%TO.N,VSENSE*%
X146710000Y-89515000D03*
%TD*%
D15*
%TO.P,J3,8,Pin_8*%
%TO.N,SYNTH_VCC*%
X131470000Y-107295000D03*
%TO.P,J3,7,Pin_7*%
X131470000Y-104755000D03*
%TO.P,J3,6,Pin_6*%
X131470000Y-102215000D03*
%TO.P,J3,5,Pin_5*%
%TO.N,unconnected-(J3-Pin_5-Pad5)*%
X131470000Y-99675000D03*
%TO.P,J3,4,Pin_4*%
%TO.N,SDA*%
X131470000Y-97135000D03*
%TO.P,J3,3,Pin_3*%
%TO.N,SCL*%
X131470000Y-94595000D03*
%TO.P,J3,2,Pin_2*%
%TO.N,GPS_RX*%
X131470000Y-92055000D03*
D16*
%TO.P,J3,1,Pin_1*%
%TO.N,GPS_TX*%
X131470000Y-89515000D03*
%TD*%
D17*
%TO.P,U3,10,CLK0*%
%TO.N,/HF_ANT1*%
X140528000Y-103120000D03*
%TO.P,U3,9,CLK1*%
%TO.N,/HF_ANT2*%
X140528000Y-103620000D03*
%TO.P,U3,8,GND*%
%TO.N,GND*%
X140528000Y-104120000D03*
%TO.P,U3,7,VDDO*%
%TO.N,SYNTH_VCC*%
X140528000Y-104620000D03*
%TO.P,U3,6,CLK2*%
%TO.N,/HF_ANT2*%
X140528000Y-105120000D03*
%TO.P,U3,5,SDA*%
%TO.N,SDA*%
X136128000Y-105120000D03*
%TO.P,U3,4,SCL*%
%TO.N,SCL*%
X136128000Y-104620000D03*
%TO.P,U3,3,XB*%
%TO.N,unconnected-(U3-XB-Pad3)*%
X136128000Y-104120000D03*
%TO.P,U3,2,XA*%
%TO.N,Net-(U3-XA)*%
X136128000Y-103620000D03*
%TO.P,U3,1,VDD*%
%TO.N,SYNTH_VCC*%
X136128000Y-103120000D03*
%TD*%
D18*
%TO.P,C1,2*%
%TO.N,VSYS*%
X144678000Y-108324000D03*
%TO.P,C1,1*%
%TO.N,GND*%
X144678000Y-106774000D03*
%TD*%
D19*
%TO.P,C2,2*%
%TO.N,GPS_VCC*%
X144678000Y-97544000D03*
%TO.P,C2,1*%
%TO.N,GND*%
X144678000Y-98504000D03*
%TD*%
D20*
%TO.P,C3,2*%
%TO.N,VSYS*%
X144678000Y-90391000D03*
%TO.P,C3,1*%
%TO.N,GND*%
X144678000Y-91941000D03*
%TD*%
D21*
%TO.P,C4,2*%
%TO.N,VSYS*%
X134531000Y-88118000D03*
%TO.P,C4,1*%
%TO.N,GND*%
X132981000Y-88118000D03*
%TD*%
D18*
%TO.P,C5,2*%
%TO.N,3V3*%
X144678000Y-101212000D03*
%TO.P,C5,1*%
%TO.N,GND*%
X144678000Y-99662000D03*
%TD*%
D19*
%TO.P,C6,2*%
%TO.N,Net-(U3-XA)*%
X137058000Y-106688000D03*
%TO.P,C6,1*%
%TO.N,Net-(X1-OUT)*%
X137058000Y-107648000D03*
%TD*%
D11*
%TO.P,C7,2*%
%TO.N,GND*%
X134462000Y-105644000D03*
%TO.P,C7,1*%
%TO.N,SYNTH_VCC*%
X133502000Y-105644000D03*
%TD*%
D22*
%TO.P,J1,1,Pin_1*%
%TO.N,GPS_ANT*%
X141122000Y-88245000D03*
%TD*%
%TO.P,J2,1,Pin_1*%
%TO.N,GND*%
X137820000Y-88245000D03*
%TD*%
%TO.P,J5,1,Pin_1*%
%TO.N,/HF_ANT1*%
X142392000Y-107676000D03*
%TD*%
%TO.P,J6,1,Pin_1*%
%TO.N,/HF_ANT2*%
X139090000Y-107676000D03*
%TD*%
D23*
%TO.P,R2,2*%
%TO.N,VSYS*%
X143914000Y-89007000D03*
%TO.P,R2,1*%
%TO.N,VSENSE*%
X144934000Y-89007000D03*
%TD*%
%TO.P,R3,2*%
%TO.N,GND*%
X143914000Y-87991000D03*
%TO.P,R3,1*%
%TO.N,VSENSE*%
X144934000Y-87991000D03*
%TD*%
D24*
%TO.P,U2,3,V_{DD}*%
%TO.N,3V3*%
X143789000Y-102977000D03*
%TO.P,U2,2,RESET*%
%TO.N,RST*%
X144739000Y-104852000D03*
%TO.P,U2,1,GND*%
%TO.N,GND*%
X142839000Y-104852000D03*
%TD*%
D25*
%TO.N,GND*%
X132600000Y-108400000D03*
X133500000Y-102300000D03*
%TO.N,SDA*%
X137566000Y-105136000D03*
%TO.N,SCL*%
X137566000Y-104374000D03*
D26*
%TO.N,VSYS*%
X145694000Y-90785000D03*
X135788000Y-87610000D03*
D25*
%TO.N,RST*%
X145440000Y-103358000D03*
D26*
%TO.N,GND*%
X142900000Y-88499000D03*
X135788000Y-89388000D03*
X139090000Y-103104000D03*
X143789000Y-104882000D03*
X138455000Y-98786000D03*
D25*
X136550000Y-105898000D03*
D26*
X134772000Y-89388000D03*
X132613000Y-100564000D03*
X140360000Y-98786000D03*
D25*
X137058000Y-108438000D03*
D26*
X136042000Y-92944000D03*
D25*
X135280000Y-105898000D03*
D26*
X141376000Y-92944000D03*
X142900000Y-89388000D03*
X142519000Y-98786000D03*
X142646000Y-92944000D03*
X141376000Y-102342000D03*
X133121000Y-99040000D03*
%TD*%
D27*
%TO.N,SYNTH_VCC*%
X134490000Y-103100000D02*
X136108000Y-103100000D01*
X136108000Y-103100000D02*
X136128000Y-103120000D01*
D28*
X133490000Y-104500000D02*
X133490000Y-104410000D01*
X133490000Y-104410000D02*
X134490000Y-103409999D01*
X134490000Y-103409999D02*
X134490000Y-103100000D01*
X133502000Y-105644000D02*
X133502000Y-104512000D01*
X133502000Y-104512000D02*
X133490000Y-104500000D01*
D27*
%TO.N,SCL*%
X134510000Y-104500000D02*
X134510000Y-104540000D01*
X134510000Y-104540000D02*
X134540000Y-104570000D01*
X134540000Y-104570000D02*
X136078000Y-104570000D01*
X136078000Y-104570000D02*
X136128000Y-104620000D01*
D28*
%TO.N,GPS_VCC*%
X145567000Y-97770000D02*
X145341000Y-97544000D01*
X145341000Y-97544000D02*
X144678000Y-97544000D01*
D27*
%TO.N,Net-(U3-XA)*%
X137058000Y-106688000D02*
X138328000Y-105418000D01*
X138328000Y-105418000D02*
X138328000Y-104177686D01*
X138328000Y-104177686D02*
X137770314Y-103620000D01*
X137770314Y-103620000D02*
X136128000Y-103620000D01*
D28*
%TO.N,GPS_ANT*%
X141374000Y-91015000D02*
X141374000Y-88497000D01*
X141374000Y-88497000D02*
X141122000Y-88245000D01*
D27*
%TO.N,SDA*%
X136112000Y-105136000D02*
X136128000Y-105120000D01*
X136144000Y-105136000D02*
X136128000Y-105120000D01*
X137566000Y-105136000D02*
X136144000Y-105136000D01*
%TO.N,GPS_RX*%
X134774000Y-100715000D02*
X134774000Y-95059000D01*
X134774000Y-95059000D02*
X131770000Y-92055000D01*
%TO.N,GPS_TX*%
X135874000Y-95062000D02*
X132620000Y-91808000D01*
X135874000Y-100715000D02*
X135874000Y-95062000D01*
X132620000Y-91808000D02*
X132620000Y-90365000D01*
X132620000Y-90365000D02*
X131770000Y-89515000D01*
%TO.N,RST*%
X145440000Y-103358000D02*
X144739000Y-104059000D01*
X144739000Y-104059000D02*
X144739000Y-104852000D01*
%TO.N,GPS_VBAT*%
X146044761Y-92055000D02*
X146410000Y-92055000D01*
X139232000Y-98867761D02*
X146044761Y-92055000D01*
X139232000Y-100657000D02*
X139232000Y-98867761D01*
X139174000Y-100715000D02*
X139232000Y-100657000D01*
%TO.N,Net-(X1-OUT)*%
X135622000Y-107026000D02*
X136436000Y-107026000D01*
X136436000Y-107026000D02*
X137058000Y-107648000D01*
D28*
%TO.N,GPS_VCC*%
X142573339Y-97544000D02*
X141374000Y-98743339D01*
X144678000Y-97544000D02*
X142573339Y-97544000D01*
X141374000Y-98743339D02*
X141374000Y-100715000D01*
D27*
%TO.N,/HF_ANT1*%
X141928000Y-107212000D02*
X142392000Y-107676000D01*
X141543686Y-103120000D02*
X141928000Y-103504314D01*
X141928000Y-103504314D02*
X141928000Y-107212000D01*
X140528000Y-103120000D02*
X141543686Y-103120000D01*
D28*
%TO.N,GPS_VCC*%
X145567000Y-97770000D02*
X146202000Y-97135000D01*
X146710000Y-99675000D02*
X146202000Y-99675000D01*
X146202000Y-99675000D02*
X145567000Y-99040000D01*
X146202000Y-97135000D02*
X146710000Y-97135000D01*
X145567000Y-99040000D02*
X145567000Y-97770000D01*
X146710000Y-97135000D02*
X146710000Y-96855500D01*
D27*
%TO.N,SCL*%
X137320000Y-104620000D02*
X136128000Y-104620000D01*
X137566000Y-104374000D02*
X137320000Y-104620000D01*
%TO.N,/HF_ANT2*%
X139090000Y-107676000D02*
X140528000Y-106238000D01*
X140528000Y-106238000D02*
X140528000Y-105120000D01*
X141478000Y-103620000D02*
X141528000Y-103670000D01*
X140528000Y-103620000D02*
X141478000Y-103620000D01*
X141478000Y-105120000D02*
X140528000Y-105120000D01*
X141528000Y-105070000D02*
X141478000Y-105120000D01*
X141528000Y-103670000D02*
X141528000Y-105070000D01*
D28*
%TO.N,SYNTH_VCC*%
X131470000Y-104755000D02*
X131597000Y-104628000D01*
D27*
X133502000Y-106606000D02*
X133922000Y-107026000D01*
D28*
X131470000Y-104755000D02*
X131851000Y-105136000D01*
D27*
X139336000Y-104620000D02*
X137820000Y-103104000D01*
X140528000Y-104620000D02*
X139336000Y-104620000D01*
D28*
X131597000Y-104628000D02*
X132486000Y-104628000D01*
X132486000Y-104628000D02*
X132486000Y-103231000D01*
X131470000Y-107295000D02*
X131739000Y-107026000D01*
X132486000Y-104628000D02*
X133500000Y-104628000D01*
X132486000Y-103231000D02*
X131470000Y-102215000D01*
D27*
X136144000Y-103104000D02*
X136128000Y-103120000D01*
X137820000Y-103104000D02*
X136144000Y-103104000D01*
D28*
X133502000Y-105644000D02*
X133502000Y-106606000D01*
X131739000Y-107026000D02*
X133922000Y-107026000D01*
%TO.N,VSYS*%
X145300000Y-90391000D02*
X144678000Y-90391000D01*
X145281000Y-108324000D02*
X146310000Y-107295000D01*
X135788000Y-87610000D02*
X135280000Y-88118000D01*
D27*
X146710000Y-107295000D02*
X146327000Y-107678000D01*
X143914000Y-89627000D02*
X143914000Y-89007000D01*
D28*
X145694000Y-90785000D02*
X145300000Y-90391000D01*
X144678000Y-108324000D02*
X145281000Y-108324000D01*
X135280000Y-88118000D02*
X134531000Y-88118000D01*
D27*
X144678000Y-90391000D02*
X143914000Y-89627000D01*
%TO.N,VSENSE*%
X146710000Y-89515000D02*
X146202000Y-89007000D01*
X146202000Y-89007000D02*
X144934000Y-89007000D01*
X144934000Y-89007000D02*
X144934000Y-87991000D01*
D28*
%TO.N,3V3*%
X143789000Y-102101000D02*
X143789000Y-102977000D01*
X145307000Y-101212000D02*
X146310000Y-102215000D01*
X144678000Y-101212000D02*
X145307000Y-101212000D01*
X144678000Y-101212000D02*
X143789000Y-102101000D01*
%TD*%
%TA.AperFunction,Conductor*%
%TO.N,GND*%
G36*
X137786020Y-106552403D02*
G01*
X137829285Y-106595668D01*
X137838876Y-106646462D01*
X137839500Y-106646462D01*
X137839500Y-106649769D01*
X137839600Y-106650299D01*
X137839500Y-106651316D01*
X137839500Y-108700672D01*
X137839501Y-108700684D01*
X137854033Y-108773736D01*
X137854035Y-108773742D01*
X137901981Y-108845499D01*
X137918589Y-108904387D01*
X137897411Y-108961791D01*
X137846537Y-108995783D01*
X137819665Y-108999500D01*
X131769500Y-108999500D01*
X131711309Y-108980593D01*
X131675345Y-108931093D01*
X131670500Y-108900500D01*
X131670500Y-108458915D01*
X131689407Y-108400724D01*
X131738904Y-108364761D01*
X131892445Y-108314873D01*
X132046788Y-108236232D01*
X132186928Y-108134414D01*
X132309414Y-108011928D01*
X132411232Y-107871788D01*
X132489873Y-107717445D01*
X132543402Y-107552701D01*
X132543403Y-107552692D01*
X132543478Y-107552386D01*
X132543533Y-107552295D01*
X132544604Y-107549001D01*
X132545394Y-107549258D01*
X132575449Y-107500218D01*
X132631977Y-107476805D01*
X132639742Y-107476500D01*
X133035445Y-107476500D01*
X133093636Y-107495407D01*
X133129600Y-107544907D01*
X133132539Y-107556173D01*
X133133464Y-107560818D01*
X133136034Y-107573741D01*
X133136035Y-107573742D01*
X133191397Y-107656599D01*
X133191400Y-107656602D01*
X133274257Y-107711964D01*
X133274260Y-107711966D01*
X133329808Y-107723015D01*
X133347315Y-107726498D01*
X133347320Y-107726498D01*
X133347326Y-107726500D01*
X133347327Y-107726500D01*
X134496673Y-107726500D01*
X134496674Y-107726500D01*
X134569740Y-107711966D01*
X134652601Y-107656601D01*
X134659635Y-107646074D01*
X134689684Y-107601102D01*
X134737733Y-107563222D01*
X134798871Y-107560818D01*
X134849745Y-107594810D01*
X134854316Y-107601102D01*
X134891395Y-107656597D01*
X134891400Y-107656602D01*
X134974257Y-107711964D01*
X134974260Y-107711966D01*
X135029808Y-107723015D01*
X135047315Y-107726498D01*
X135047320Y-107726498D01*
X135047326Y-107726500D01*
X135047327Y-107726500D01*
X136196673Y-107726500D01*
X136196674Y-107726500D01*
X136269740Y-107711966D01*
X136343500Y-107662681D01*
X136402387Y-107646074D01*
X136459790Y-107667252D01*
X136493783Y-107718125D01*
X136497500Y-107744997D01*
X136497500Y-107818736D01*
X136511983Y-107910174D01*
X136511984Y-107910178D01*
X136556165Y-107996887D01*
X136568141Y-108020391D01*
X136655609Y-108107859D01*
X136765825Y-108164017D01*
X136857265Y-108178500D01*
X137258734Y-108178499D01*
X137258737Y-108178499D01*
X137285332Y-108174286D01*
X137350175Y-108164017D01*
X137460391Y-108107859D01*
X137547859Y-108020391D01*
X137604017Y-107910175D01*
X137618500Y-107818735D01*
X137618499Y-107477266D01*
X137618499Y-107477262D01*
X137612882Y-107441801D01*
X137604017Y-107385825D01*
X137547859Y-107275609D01*
X137510251Y-107238001D01*
X137482476Y-107183487D01*
X137492047Y-107123055D01*
X137510250Y-107097999D01*
X137547859Y-107060391D01*
X137604017Y-106950175D01*
X137618500Y-106858735D01*
X137618499Y-106664188D01*
X137620967Y-106656591D01*
X137619718Y-106648702D01*
X137630242Y-106628045D01*
X137637406Y-106605999D01*
X137647488Y-106594192D01*
X137671073Y-106570607D01*
X137725588Y-106542832D01*
X137786020Y-106552403D01*
G37*
%TD.AperFunction*%
%TA.AperFunction,Conductor*%
G36*
X145876507Y-92797736D02*
G01*
X145891995Y-92800189D01*
X145917050Y-92818392D01*
X145993072Y-92894414D01*
X146133212Y-92996232D01*
X146287555Y-93074873D01*
X146441093Y-93124761D01*
X146490593Y-93160724D01*
X146509500Y-93218915D01*
X146509500Y-93431083D01*
X146490593Y-93489274D01*
X146441094Y-93525237D01*
X146287558Y-93575125D01*
X146133214Y-93653766D01*
X145993073Y-93755585D01*
X145870585Y-93878073D01*
X145768766Y-94018214D01*
X145690125Y-94172558D01*
X145690123Y-94172561D01*
X145636598Y-94337293D01*
X145636597Y-94337297D01*
X145609500Y-94508385D01*
X145609500Y-94681614D01*
X145636597Y-94852702D01*
X145636598Y-94852706D01*
X145690123Y-95017438D01*
X145690125Y-95017441D01*
X145690126Y-95017444D01*
X145690127Y-95017445D01*
X145768768Y-95171788D01*
X145870586Y-95311928D01*
X145993072Y-95434414D01*
X146133212Y-95536232D01*
X146287555Y-95614873D01*
X146441093Y-95664761D01*
X146490593Y-95700724D01*
X146509500Y-95758915D01*
X146509500Y-95971083D01*
X146490593Y-96029274D01*
X146441094Y-96065237D01*
X146287558Y-96115125D01*
X146133214Y-96193766D01*
X145993073Y-96295585D01*
X145870585Y-96418073D01*
X145768766Y-96558214D01*
X145690125Y-96712558D01*
X145690123Y-96712561D01*
X145636598Y-96877293D01*
X145636597Y-96877298D01*
X145611329Y-97036836D01*
X145583551Y-97091353D01*
X145529035Y-97119130D01*
X145487926Y-97116976D01*
X145419705Y-97098697D01*
X145400309Y-97093500D01*
X145400308Y-97093500D01*
X145122526Y-97093500D01*
X145077581Y-97082709D01*
X144970175Y-97027983D01*
X144970176Y-97027983D01*
X144878736Y-97013500D01*
X144477262Y-97013500D01*
X144385825Y-97027983D01*
X144385821Y-97027984D01*
X144301214Y-97071094D01*
X144278418Y-97082709D01*
X144233474Y-97093500D01*
X142514030Y-97093500D01*
X142456741Y-97108850D01*
X142399451Y-97124201D01*
X142356035Y-97149266D01*
X142356036Y-97149267D01*
X142296727Y-97183509D01*
X141013507Y-98466729D01*
X140954202Y-98569448D01*
X140954201Y-98569449D01*
X140949420Y-98587291D01*
X140949421Y-98587292D01*
X140931936Y-98652549D01*
X140923500Y-98684031D01*
X140923500Y-99427960D01*
X140904593Y-99486151D01*
X140879501Y-99510276D01*
X140843400Y-99534397D01*
X140843397Y-99534400D01*
X140788035Y-99617257D01*
X140788033Y-99617263D01*
X140773501Y-99690315D01*
X140773500Y-99690327D01*
X140773500Y-101739672D01*
X140773501Y-101739684D01*
X140788033Y-101812736D01*
X140788035Y-101812742D01*
X140843397Y-101895599D01*
X140843400Y-101895602D01*
X140868689Y-101912499D01*
X140926260Y-101950966D01*
X140981808Y-101962015D01*
X140999315Y-101965498D01*
X140999320Y-101965498D01*
X140999326Y-101965500D01*
X140999327Y-101965500D01*
X141748673Y-101965500D01*
X141748674Y-101965500D01*
X141821740Y-101950966D01*
X141868999Y-101919388D01*
X141927886Y-101902780D01*
X141978999Y-101919388D01*
X142004004Y-101936095D01*
X142026256Y-101950964D01*
X142026257Y-101950964D01*
X142026260Y-101950966D01*
X142081808Y-101962015D01*
X142099315Y-101965498D01*
X142099320Y-101965498D01*
X142099326Y-101965500D01*
X142099327Y-101965500D01*
X142848673Y-101965500D01*
X142848674Y-101965500D01*
X142921740Y-101950966D01*
X143004601Y-101895601D01*
X143059966Y-101812740D01*
X143074500Y-101739674D01*
X143074500Y-99690326D01*
X143059966Y-99617260D01*
X143004601Y-99534399D01*
X143004599Y-99534397D01*
X142921742Y-99479035D01*
X142921740Y-99479034D01*
X142921737Y-99479033D01*
X142921736Y-99479033D01*
X142848684Y-99464501D01*
X142848674Y-99464500D01*
X142099326Y-99464500D01*
X142099325Y-99464500D01*
X142099315Y-99464501D01*
X142026263Y-99479033D01*
X142026254Y-99479036D01*
X141979000Y-99510610D01*
X141953123Y-99517908D01*
X141927899Y-99527217D01*
X141924006Y-99526119D01*
X141920112Y-99527218D01*
X141869009Y-99510616D01*
X141868509Y-99510282D01*
X141830623Y-99462237D01*
X141824500Y-99427960D01*
X141824500Y-98970950D01*
X141843407Y-98912759D01*
X141853496Y-98900946D01*
X142730946Y-98023496D01*
X142785463Y-97995719D01*
X142800950Y-97994500D01*
X144233474Y-97994500D01*
X144278418Y-98005290D01*
X144385825Y-98060017D01*
X144477265Y-98074500D01*
X144878734Y-98074499D01*
X144878737Y-98074499D01*
X144905332Y-98070286D01*
X144970175Y-98060017D01*
X144972553Y-98058804D01*
X144975190Y-98058387D01*
X144977589Y-98057608D01*
X144977712Y-98057987D01*
X145032985Y-98049233D01*
X145087502Y-98077009D01*
X145115281Y-98131525D01*
X145116500Y-98147014D01*
X145116500Y-99099311D01*
X145129608Y-99148228D01*
X145129608Y-99148230D01*
X145129609Y-99148230D01*
X145129609Y-99148231D01*
X145147201Y-99213887D01*
X145147202Y-99213889D01*
X145147203Y-99213892D01*
X145206507Y-99316609D01*
X145206509Y-99316611D01*
X145206511Y-99316614D01*
X145580505Y-99690608D01*
X145608281Y-99745123D01*
X145609500Y-99760610D01*
X145609500Y-99761614D01*
X145636597Y-99932702D01*
X145636598Y-99932706D01*
X145690123Y-100097438D01*
X145690125Y-100097441D01*
X145690126Y-100097444D01*
X145690127Y-100097445D01*
X145768768Y-100251788D01*
X145870586Y-100391928D01*
X145993072Y-100514414D01*
X146133212Y-100616232D01*
X146287555Y-100694873D01*
X146441093Y-100744761D01*
X146490593Y-100780724D01*
X146509500Y-100838915D01*
X146509500Y-101051083D01*
X146490593Y-101109274D01*
X146441094Y-101145237D01*
X146287558Y-101195125D01*
X146133212Y-101273767D01*
X146133207Y-101273770D01*
X146127858Y-101277657D01*
X146069667Y-101296561D01*
X146011477Y-101277651D01*
X145999669Y-101267565D01*
X145583614Y-100851511D01*
X145583609Y-100851507D01*
X145480890Y-100792202D01*
X145480886Y-100792200D01*
X145456673Y-100785712D01*
X145456673Y-100785713D01*
X145382963Y-100765962D01*
X145331650Y-100732639D01*
X145329354Y-100729691D01*
X145267687Y-100647313D01*
X145226167Y-100616232D01*
X145158228Y-100565373D01*
X145158226Y-100565372D01*
X145030114Y-100517588D01*
X145030113Y-100517587D01*
X144991895Y-100513479D01*
X144973485Y-100511500D01*
X144973481Y-100511500D01*
X144382521Y-100511500D01*
X144382515Y-100511501D01*
X144325888Y-100517587D01*
X144325886Y-100517588D01*
X144197774Y-100565372D01*
X144197773Y-100565372D01*
X144197772Y-100565373D01*
X144088315Y-100647311D01*
X144088311Y-100647315D01*
X144006373Y-100756771D01*
X143958587Y-100884887D01*
X143952500Y-100941518D01*
X143952500Y-101259388D01*
X143933593Y-101317579D01*
X143923504Y-101329391D01*
X143428511Y-101824385D01*
X143428507Y-101824390D01*
X143369200Y-101927112D01*
X143369200Y-101927113D01*
X143369201Y-101927114D01*
X143358916Y-101965500D01*
X143338500Y-102041692D01*
X143338500Y-102082600D01*
X143319593Y-102140791D01*
X143312153Y-102149502D01*
X143310950Y-102151158D01*
X143253354Y-102264195D01*
X143238500Y-102357978D01*
X143238500Y-103596021D01*
X143238501Y-103596023D01*
X143253352Y-103689799D01*
X143253354Y-103689804D01*
X143310950Y-103802842D01*
X143400658Y-103892550D01*
X143513696Y-103950146D01*
X143607481Y-103965000D01*
X143970518Y-103964999D01*
X143970520Y-103964999D01*
X143970521Y-103964998D01*
X144017411Y-103957572D01*
X144064299Y-103950147D01*
X144064301Y-103950147D01*
X144064302Y-103950146D01*
X144064304Y-103950146D01*
X144110734Y-103926488D01*
X144171163Y-103916917D01*
X144225680Y-103944693D01*
X144253459Y-103999209D01*
X144243888Y-104059642D01*
X144243888Y-104059643D01*
X144203354Y-104139196D01*
X144188500Y-104232978D01*
X144188500Y-105471021D01*
X144188501Y-105471023D01*
X144203352Y-105564799D01*
X144203354Y-105564804D01*
X144260950Y-105677842D01*
X144350658Y-105767550D01*
X144463696Y-105825146D01*
X144557481Y-105840000D01*
X144920518Y-105839999D01*
X144920520Y-105839999D01*
X144920521Y-105839998D01*
X144993745Y-105828402D01*
X145014299Y-105825147D01*
X145014299Y-105825146D01*
X145014304Y-105825146D01*
X145127342Y-105767550D01*
X145217050Y-105677842D01*
X145274646Y-105564804D01*
X145289500Y-105471019D01*
X145289499Y-104232982D01*
X145289499Y-104232981D01*
X145289499Y-104232978D01*
X145289498Y-104232976D01*
X145274647Y-104139201D01*
X145274646Y-104139200D01*
X145274646Y-104139196D01*
X145266739Y-104123678D01*
X145260015Y-104081222D01*
X145257169Y-104063252D01*
X145257169Y-104063249D01*
X145277323Y-104023695D01*
X145284943Y-104008737D01*
X145396186Y-103897496D01*
X145450703Y-103869719D01*
X145466189Y-103868500D01*
X145507208Y-103868500D01*
X145507209Y-103868500D01*
X145637046Y-103833710D01*
X145753454Y-103766502D01*
X145848502Y-103671454D01*
X145915710Y-103555046D01*
X145950500Y-103425209D01*
X145950500Y-103290791D01*
X145933918Y-103228906D01*
X145937119Y-103167805D01*
X145975624Y-103120255D01*
X146034724Y-103104419D01*
X146087735Y-103123191D01*
X146133212Y-103156232D01*
X146287555Y-103234873D01*
X146441093Y-103284761D01*
X146490593Y-103320724D01*
X146509500Y-103378915D01*
X146509500Y-106095500D01*
X146490593Y-106153691D01*
X146441093Y-106189655D01*
X146410500Y-106194500D01*
X145835326Y-106194500D01*
X145835325Y-106194500D01*
X145835315Y-106194501D01*
X145762263Y-106209033D01*
X145762257Y-106209035D01*
X145679400Y-106264397D01*
X145679397Y-106264400D01*
X145624035Y-106347257D01*
X145624033Y-106347263D01*
X145609501Y-106420315D01*
X145609500Y-106420327D01*
X145609500Y-107317388D01*
X145590593Y-107375579D01*
X145580503Y-107387392D01*
X145294543Y-107673351D01*
X145240027Y-107701128D01*
X145179595Y-107691557D01*
X145165214Y-107682603D01*
X145158227Y-107677373D01*
X145158226Y-107677372D01*
X145030114Y-107629588D01*
X145030113Y-107629587D01*
X144991895Y-107625479D01*
X144973485Y-107623500D01*
X144973481Y-107623500D01*
X144382521Y-107623500D01*
X144382515Y-107623501D01*
X144325888Y-107629587D01*
X144325886Y-107629588D01*
X144197774Y-107677372D01*
X144197773Y-107677372D01*
X144197772Y-107677373D01*
X144088315Y-107759311D01*
X144088311Y-107759315D01*
X144006373Y-107868771D01*
X143958587Y-107996887D01*
X143952500Y-108053518D01*
X143952500Y-108594478D01*
X143952501Y-108594484D01*
X143958587Y-108651111D01*
X143958587Y-108651112D01*
X143958588Y-108651114D01*
X144006372Y-108779226D01*
X144052744Y-108841172D01*
X144072480Y-108899087D01*
X144054405Y-108957541D01*
X144005424Y-108994208D01*
X143973490Y-108999500D01*
X143662335Y-108999500D01*
X143604144Y-108980593D01*
X143568180Y-108931093D01*
X143568180Y-108869907D01*
X143580019Y-108845499D01*
X143612010Y-108797620D01*
X143627966Y-108773740D01*
X143642500Y-108700674D01*
X143642500Y-106651326D01*
X143641532Y-106646462D01*
X143636902Y-106623182D01*
X143627966Y-106578260D01*
X143572601Y-106495399D01*
X143572599Y-106495397D01*
X143489742Y-106440035D01*
X143489740Y-106440034D01*
X143489737Y-106440033D01*
X143489736Y-106440033D01*
X143416684Y-106425501D01*
X143416674Y-106425500D01*
X143416673Y-106425500D01*
X142377500Y-106425500D01*
X142319309Y-106406593D01*
X142283345Y-106357093D01*
X142278500Y-106326500D01*
X142278500Y-103458171D01*
X142260050Y-103389314D01*
X142254614Y-103369026D01*
X142242608Y-103348231D01*
X142242608Y-103348230D01*
X142216512Y-103303031D01*
X142208470Y-103289102D01*
X141758898Y-102839530D01*
X141678974Y-102793386D01*
X141673010Y-102791788D01*
X141673005Y-102791786D01*
X141619261Y-102777386D01*
X141589830Y-102769500D01*
X141247748Y-102769500D01*
X139808252Y-102769500D01*
X139808251Y-102769500D01*
X139808241Y-102769501D01*
X139749772Y-102781132D01*
X139749766Y-102781134D01*
X139683451Y-102825445D01*
X139683445Y-102825451D01*
X139639134Y-102891766D01*
X139639132Y-102891772D01*
X139627501Y-102950241D01*
X139627500Y-102950253D01*
X139627500Y-103289751D01*
X139639621Y-103350686D01*
X139639621Y-103389314D01*
X139627500Y-103450248D01*
X139627500Y-103789746D01*
X139627501Y-103789758D01*
X139639132Y-103848227D01*
X139639134Y-103848233D01*
X139668746Y-103892550D01*
X139683448Y-103914552D01*
X139749769Y-103958867D01*
X139794231Y-103967711D01*
X139808241Y-103970498D01*
X139808246Y-103970498D01*
X139808252Y-103970500D01*
X140481856Y-103970500D01*
X141078500Y-103970500D01*
X141093412Y-103975345D01*
X141109093Y-103975345D01*
X141121778Y-103984561D01*
X141136691Y-103989407D01*
X141145907Y-104002092D01*
X141158593Y-104011309D01*
X141163438Y-104026221D01*
X141172655Y-104038907D01*
X141177500Y-104069500D01*
X141177500Y-104170500D01*
X141158593Y-104228691D01*
X141109093Y-104264655D01*
X141078500Y-104269500D01*
X139522190Y-104269500D01*
X139463999Y-104250593D01*
X139452186Y-104240504D01*
X138746394Y-103534712D01*
X138035212Y-102823530D01*
X137955288Y-102777386D01*
X137866144Y-102753500D01*
X137866142Y-102753500D01*
X136182106Y-102753500D01*
X136156484Y-102750127D01*
X136154144Y-102749500D01*
X136154143Y-102749500D01*
X135036966Y-102749500D01*
X134978775Y-102730593D01*
X134955395Y-102703218D01*
X134954439Y-102703913D01*
X134949860Y-102697611D01*
X134949859Y-102697609D01*
X134862391Y-102610141D01*
X134752175Y-102553983D01*
X134752176Y-102553983D01*
X134660736Y-102539500D01*
X134319262Y-102539500D01*
X134227825Y-102553983D01*
X134227821Y-102553984D01*
X134117610Y-102610140D01*
X134030140Y-102697610D01*
X133973983Y-102807823D01*
X133959500Y-102899263D01*
X133959500Y-103262386D01*
X133940593Y-103320577D01*
X133930504Y-103332390D01*
X133359175Y-103903720D01*
X133304658Y-103931497D01*
X133303492Y-103931674D01*
X133243482Y-103940418D01*
X133127899Y-103996923D01*
X133127898Y-103996923D01*
X133127898Y-103996924D01*
X133105501Y-104019320D01*
X133050987Y-104047096D01*
X132990555Y-104037525D01*
X132947290Y-103994260D01*
X132936500Y-103949315D01*
X132936500Y-103171690D01*
X132936499Y-103171688D01*
X132932357Y-103156232D01*
X132912286Y-103081326D01*
X132905799Y-103057113D01*
X132904241Y-103054414D01*
X132846492Y-102954390D01*
X132846488Y-102954385D01*
X132542500Y-102650396D01*
X132514723Y-102595880D01*
X132518350Y-102549799D01*
X132543402Y-102472701D01*
X132561572Y-102357981D01*
X132570500Y-102301614D01*
X132570500Y-102128385D01*
X132543402Y-101957297D01*
X132543401Y-101957293D01*
X132489876Y-101792561D01*
X132489874Y-101792558D01*
X132489873Y-101792557D01*
X132489873Y-101792555D01*
X132411232Y-101638212D01*
X132309414Y-101498072D01*
X132186928Y-101375586D01*
X132046788Y-101273768D01*
X132046787Y-101273767D01*
X132046785Y-101273766D01*
X131892441Y-101195125D01*
X131738906Y-101145237D01*
X131689407Y-101109273D01*
X131670500Y-101051083D01*
X131670500Y-100838915D01*
X131689407Y-100780724D01*
X131738904Y-100744761D01*
X131892445Y-100694873D01*
X132046788Y-100616232D01*
X132186928Y-100514414D01*
X132309414Y-100391928D01*
X132411232Y-100251788D01*
X132489873Y-100097445D01*
X132489874Y-100097440D01*
X132489876Y-100097438D01*
X132543401Y-99932706D01*
X132543402Y-99932702D01*
X132570500Y-99761614D01*
X132570500Y-99588383D01*
X132543402Y-99417297D01*
X132543401Y-99417293D01*
X132489876Y-99252561D01*
X132489874Y-99252558D01*
X132489873Y-99252557D01*
X132489873Y-99252555D01*
X132411232Y-99098212D01*
X132309414Y-98958072D01*
X132186928Y-98835586D01*
X132046788Y-98733768D01*
X132046787Y-98733767D01*
X132046785Y-98733766D01*
X131892441Y-98655125D01*
X131738906Y-98605237D01*
X131689407Y-98569273D01*
X131670500Y-98511083D01*
X131670500Y-98298915D01*
X131689407Y-98240724D01*
X131738904Y-98204761D01*
X131892445Y-98154873D01*
X132046788Y-98076232D01*
X132186928Y-97974414D01*
X132309414Y-97851928D01*
X132411232Y-97711788D01*
X132489873Y-97557445D01*
X132489874Y-97557440D01*
X132489876Y-97557438D01*
X132543401Y-97392706D01*
X132543402Y-97392702D01*
X132570500Y-97221614D01*
X132570500Y-97048385D01*
X132543402Y-96877297D01*
X132543401Y-96877293D01*
X132489876Y-96712561D01*
X132489874Y-96712558D01*
X132489873Y-96712557D01*
X132489873Y-96712555D01*
X132411232Y-96558212D01*
X132309414Y-96418072D01*
X132186928Y-96295586D01*
X132046788Y-96193768D01*
X132046787Y-96193767D01*
X132046785Y-96193766D01*
X131892441Y-96115125D01*
X131738906Y-96065237D01*
X131689407Y-96029273D01*
X131670500Y-95971083D01*
X131670500Y-95758915D01*
X131689407Y-95700724D01*
X131738904Y-95664761D01*
X131892445Y-95614873D01*
X132046788Y-95536232D01*
X132186928Y-95434414D01*
X132309414Y-95311928D01*
X132411232Y-95171788D01*
X132489873Y-95017445D01*
X132489874Y-95017440D01*
X132489876Y-95017438D01*
X132543401Y-94852706D01*
X132543402Y-94852702D01*
X132570500Y-94681614D01*
X132570500Y-94508385D01*
X132543402Y-94337297D01*
X132543401Y-94337293D01*
X132489876Y-94172561D01*
X132489874Y-94172558D01*
X132489873Y-94172557D01*
X132489873Y-94172555D01*
X132411232Y-94018212D01*
X132309414Y-93878072D01*
X132186928Y-93755586D01*
X132046788Y-93653768D01*
X132046787Y-93653767D01*
X132046785Y-93653766D01*
X131892441Y-93575125D01*
X131738906Y-93525237D01*
X131689407Y-93489273D01*
X131670500Y-93431083D01*
X131670500Y-93218915D01*
X131689407Y-93160724D01*
X131738904Y-93124761D01*
X131892445Y-93074873D01*
X132046788Y-92996232D01*
X132076126Y-92974915D01*
X132134317Y-92956008D01*
X132192508Y-92974915D01*
X132204322Y-92985004D01*
X134394504Y-95175186D01*
X134422281Y-95229703D01*
X134423500Y-95245190D01*
X134423500Y-99378444D01*
X134404593Y-99436635D01*
X134355093Y-99472599D01*
X134343818Y-99475541D01*
X134326261Y-99479033D01*
X134326257Y-99479035D01*
X134243400Y-99534397D01*
X134243397Y-99534400D01*
X134188035Y-99617257D01*
X134188033Y-99617263D01*
X134173501Y-99690315D01*
X134173500Y-99690327D01*
X134173500Y-101739672D01*
X134173501Y-101739684D01*
X134188033Y-101812736D01*
X134188035Y-101812742D01*
X134243397Y-101895599D01*
X134243400Y-101895602D01*
X134268689Y-101912499D01*
X134326260Y-101950966D01*
X134381808Y-101962015D01*
X134399315Y-101965498D01*
X134399320Y-101965498D01*
X134399326Y-101965500D01*
X134399327Y-101965500D01*
X135148673Y-101965500D01*
X135148674Y-101965500D01*
X135221740Y-101950966D01*
X135268999Y-101919388D01*
X135327886Y-101902780D01*
X135378999Y-101919388D01*
X135404004Y-101936095D01*
X135426256Y-101950964D01*
X135426257Y-101950964D01*
X135426260Y-101950966D01*
X135481808Y-101962015D01*
X135499315Y-101965498D01*
X135499320Y-101965498D01*
X135499326Y-101965500D01*
X135499327Y-101965500D01*
X136248673Y-101965500D01*
X136248674Y-101965500D01*
X136321740Y-101950966D01*
X136368999Y-101919388D01*
X136427886Y-101902780D01*
X136478999Y-101919388D01*
X136504004Y-101936095D01*
X136526256Y-101950964D01*
X136526257Y-101950964D01*
X136526260Y-101950966D01*
X136581808Y-101962015D01*
X136599315Y-101965498D01*
X136599320Y-101965498D01*
X136599326Y-101965500D01*
X136599327Y-101965500D01*
X137348673Y-101965500D01*
X137348674Y-101965500D01*
X137421740Y-101950966D01*
X137468999Y-101919388D01*
X137527886Y-101902780D01*
X137578999Y-101919388D01*
X137604004Y-101936095D01*
X137626256Y-101950964D01*
X137626257Y-101950964D01*
X137626260Y-101950966D01*
X137681808Y-101962015D01*
X137699315Y-101965498D01*
X137699320Y-101965498D01*
X137699326Y-101965500D01*
X137699327Y-101965500D01*
X138448673Y-101965500D01*
X138448674Y-101965500D01*
X138521740Y-101950966D01*
X138568999Y-101919388D01*
X138627886Y-101902780D01*
X138678999Y-101919388D01*
X138704004Y-101936095D01*
X138726256Y-101950964D01*
X138726257Y-101950964D01*
X138726260Y-101950966D01*
X138781808Y-101962015D01*
X138799315Y-101965498D01*
X138799320Y-101965498D01*
X138799326Y-101965500D01*
X138799327Y-101965500D01*
X139548673Y-101965500D01*
X139548674Y-101965500D01*
X139621740Y-101950966D01*
X139704601Y-101895601D01*
X139759966Y-101812740D01*
X139774500Y-101739674D01*
X139774500Y-99690326D01*
X139759966Y-99617260D01*
X139704601Y-99534399D01*
X139704599Y-99534397D01*
X139626499Y-99482213D01*
X139588619Y-99434163D01*
X139582500Y-99399897D01*
X139582500Y-99053950D01*
X139601407Y-98995759D01*
X139611490Y-98983952D01*
X145777048Y-92818393D01*
X145791017Y-92811276D01*
X145802105Y-92800189D01*
X145817592Y-92797736D01*
X145831563Y-92790618D01*
X145847050Y-92793070D01*
X145862537Y-92790618D01*
X145876507Y-92797736D01*
G37*
%TD.AperFunction*%
%TA.AperFunction,Conductor*%
G36*
X135186691Y-104939407D02*
G01*
X135222655Y-104988907D01*
X135227500Y-105019500D01*
X135227500Y-105289746D01*
X135227501Y-105289758D01*
X135239132Y-105348227D01*
X135239134Y-105348233D01*
X135241533Y-105351823D01*
X135283448Y-105414552D01*
X135349769Y-105458867D01*
X135394231Y-105467711D01*
X135408241Y-105470498D01*
X135408246Y-105470498D01*
X135408252Y-105470500D01*
X135993111Y-105470500D01*
X136008957Y-105471776D01*
X136013894Y-105472576D01*
X136065856Y-105486499D01*
X136097852Y-105486499D01*
X136097856Y-105486500D01*
X137153536Y-105486500D01*
X137211727Y-105505407D01*
X137223539Y-105515495D01*
X137252546Y-105544502D01*
X137368954Y-105611710D01*
X137415994Y-105624314D01*
X137467306Y-105657637D01*
X137489233Y-105714758D01*
X137473398Y-105773859D01*
X137460372Y-105789944D01*
X137121811Y-106128504D01*
X137067295Y-106156281D01*
X137051808Y-106157500D01*
X136857263Y-106157500D01*
X136765825Y-106171983D01*
X136765821Y-106171984D01*
X136655610Y-106228140D01*
X136568140Y-106315610D01*
X136528506Y-106393395D01*
X136485241Y-106436659D01*
X136424809Y-106446230D01*
X136370292Y-106418452D01*
X136357981Y-106403450D01*
X136352602Y-106395400D01*
X136352599Y-106395397D01*
X136269742Y-106340035D01*
X136269740Y-106340034D01*
X136269737Y-106340033D01*
X136269736Y-106340033D01*
X136196684Y-106325501D01*
X136196674Y-106325500D01*
X135047326Y-106325500D01*
X135047325Y-106325500D01*
X135047315Y-106325501D01*
X134974263Y-106340033D01*
X134974257Y-106340035D01*
X134891400Y-106395397D01*
X134891397Y-106395400D01*
X134854316Y-106450898D01*
X134806266Y-106488778D01*
X134745128Y-106491180D01*
X134694254Y-106457188D01*
X134689684Y-106450898D01*
X134652602Y-106395400D01*
X134652599Y-106395397D01*
X134569742Y-106340035D01*
X134569740Y-106340034D01*
X134569737Y-106340033D01*
X134569736Y-106340033D01*
X134496684Y-106325501D01*
X134496674Y-106325500D01*
X134496673Y-106325500D01*
X134051500Y-106325500D01*
X134036588Y-106320655D01*
X134020907Y-106320655D01*
X134008221Y-106311438D01*
X133993309Y-106306593D01*
X133984092Y-106293907D01*
X133971407Y-106284691D01*
X133966561Y-106269778D01*
X133957345Y-106257093D01*
X133952500Y-106226500D01*
X133952500Y-106088525D01*
X133963290Y-106043581D01*
X134018017Y-105936175D01*
X134032500Y-105844735D01*
X134032499Y-105443266D01*
X134032499Y-105443263D01*
X134032499Y-105443262D01*
X134026882Y-105407801D01*
X134018017Y-105351825D01*
X133963290Y-105244418D01*
X133952500Y-105199474D01*
X133952500Y-105046685D01*
X133971407Y-104988494D01*
X134020907Y-104952530D01*
X134082093Y-104952530D01*
X134121501Y-104976679D01*
X134147898Y-105003076D01*
X134263482Y-105059582D01*
X134338418Y-105070500D01*
X134338421Y-105070500D01*
X134681578Y-105070500D01*
X134681582Y-105070500D01*
X134756518Y-105059582D01*
X134872102Y-105003076D01*
X134904678Y-104970500D01*
X134925683Y-104949496D01*
X134932799Y-104945870D01*
X134937495Y-104939407D01*
X134959546Y-104932242D01*
X134980200Y-104921719D01*
X134995686Y-104920500D01*
X135128500Y-104920500D01*
X135186691Y-104939407D01*
G37*
%TD.AperFunction*%
%TA.AperFunction,Conductor*%
G36*
X135232179Y-87194407D02*
G01*
X135268143Y-87243907D01*
X135268143Y-87305093D01*
X135259727Y-87323994D01*
X135228423Y-87378216D01*
X135210606Y-87444711D01*
X135177282Y-87496026D01*
X135120160Y-87517952D01*
X135061060Y-87502116D01*
X135055651Y-87498342D01*
X134986228Y-87446373D01*
X134986226Y-87446372D01*
X134858114Y-87398588D01*
X134858113Y-87398587D01*
X134819895Y-87394479D01*
X134801485Y-87392500D01*
X134801481Y-87392500D01*
X134260521Y-87392500D01*
X134260515Y-87392501D01*
X134203888Y-87398587D01*
X134203886Y-87398588D01*
X134075774Y-87446372D01*
X134075773Y-87446372D01*
X134075772Y-87446373D01*
X133966315Y-87528311D01*
X133966311Y-87528315D01*
X133884373Y-87637771D01*
X133836587Y-87765887D01*
X133830500Y-87822518D01*
X133830500Y-88413478D01*
X133830501Y-88413484D01*
X133836587Y-88470111D01*
X133836587Y-88470112D01*
X133836588Y-88470114D01*
X133884372Y-88598226D01*
X133966313Y-88707687D01*
X134075774Y-88789628D01*
X134203886Y-88837412D01*
X134260515Y-88843500D01*
X134801484Y-88843499D01*
X134858114Y-88837412D01*
X134986226Y-88789628D01*
X135095687Y-88707687D01*
X135134304Y-88656099D01*
X135170184Y-88608171D01*
X135220192Y-88572918D01*
X135249437Y-88568500D01*
X135339309Y-88568500D01*
X135429669Y-88544287D01*
X135429672Y-88544287D01*
X135442903Y-88540741D01*
X135453887Y-88537799D01*
X135556614Y-88478489D01*
X135684020Y-88351083D01*
X135795608Y-88239496D01*
X135850124Y-88211719D01*
X135865611Y-88210500D01*
X135867055Y-88210500D01*
X135867057Y-88210500D01*
X136019784Y-88169577D01*
X136156716Y-88090520D01*
X136268520Y-87978716D01*
X136347577Y-87841784D01*
X136388500Y-87689057D01*
X136388500Y-87530943D01*
X136347577Y-87378216D01*
X136316274Y-87323998D01*
X136303554Y-87264151D01*
X136328441Y-87208256D01*
X136381429Y-87177663D01*
X136402012Y-87175500D01*
X139772500Y-87175500D01*
X139830691Y-87194407D01*
X139866655Y-87243907D01*
X139871500Y-87274500D01*
X139871500Y-89269672D01*
X139871501Y-89269684D01*
X139886033Y-89342736D01*
X139886035Y-89342742D01*
X139941397Y-89425599D01*
X139941400Y-89425602D01*
X139987643Y-89456500D01*
X140024260Y-89480966D01*
X140079808Y-89492015D01*
X140097315Y-89495498D01*
X140097320Y-89495498D01*
X140097326Y-89495500D01*
X140824500Y-89495500D01*
X140839412Y-89500345D01*
X140855093Y-89500345D01*
X140867778Y-89509561D01*
X140882691Y-89514407D01*
X140891907Y-89527092D01*
X140904593Y-89536309D01*
X140909438Y-89551221D01*
X140918655Y-89563907D01*
X140923500Y-89594500D01*
X140923500Y-89727960D01*
X140904593Y-89786151D01*
X140879501Y-89810276D01*
X140843400Y-89834397D01*
X140843397Y-89834400D01*
X140788035Y-89917257D01*
X140788033Y-89917263D01*
X140773501Y-89990315D01*
X140773500Y-89990327D01*
X140773500Y-92039672D01*
X140773501Y-92039684D01*
X140788033Y-92112736D01*
X140788035Y-92112742D01*
X140843397Y-92195599D01*
X140843399Y-92195601D01*
X140926260Y-92250966D01*
X140981808Y-92262015D01*
X140999315Y-92265498D01*
X140999320Y-92265498D01*
X140999326Y-92265500D01*
X140999327Y-92265500D01*
X141748673Y-92265500D01*
X141748674Y-92265500D01*
X141821740Y-92250966D01*
X141904601Y-92195601D01*
X141959966Y-92112740D01*
X141974500Y-92039674D01*
X141974500Y-89990326D01*
X141959966Y-89917260D01*
X141924000Y-89863432D01*
X141904602Y-89834400D01*
X141904599Y-89834397D01*
X141868499Y-89810276D01*
X141857622Y-89796478D01*
X141843407Y-89786151D01*
X141839149Y-89773046D01*
X141830619Y-89762226D01*
X141824500Y-89727960D01*
X141824500Y-89594500D01*
X141843407Y-89536309D01*
X141892907Y-89500345D01*
X141923500Y-89495500D01*
X142146673Y-89495500D01*
X142146674Y-89495500D01*
X142219740Y-89480966D01*
X142302601Y-89425601D01*
X142357966Y-89342740D01*
X142372500Y-89269674D01*
X142372500Y-87274500D01*
X142391407Y-87216309D01*
X142440907Y-87180345D01*
X142471500Y-87175500D01*
X146410500Y-87175500D01*
X146468691Y-87194407D01*
X146504655Y-87243907D01*
X146509500Y-87274500D01*
X146509500Y-88351083D01*
X146490593Y-88409274D01*
X146441094Y-88445237D01*
X146287558Y-88495125D01*
X146133212Y-88573767D01*
X146133206Y-88573771D01*
X146045366Y-88637592D01*
X145987176Y-88656500D01*
X145478990Y-88656500D01*
X145420799Y-88637593D01*
X145402331Y-88620145D01*
X145395082Y-88611274D01*
X145387076Y-88594898D01*
X145357668Y-88565490D01*
X145354526Y-88561645D01*
X145345149Y-88537539D01*
X145333404Y-88514487D01*
X145334207Y-88509410D01*
X145332345Y-88504621D01*
X145338928Y-88479605D01*
X145342975Y-88454055D01*
X145347173Y-88448276D01*
X145347917Y-88445451D01*
X145351138Y-88442818D01*
X145361178Y-88428999D01*
X145387076Y-88403102D01*
X145443582Y-88287518D01*
X145454500Y-88212582D01*
X145454500Y-87769418D01*
X145443582Y-87694482D01*
X145387076Y-87578898D01*
X145296102Y-87487924D01*
X145180518Y-87431418D01*
X145105582Y-87420500D01*
X144762418Y-87420500D01*
X144687482Y-87431418D01*
X144571899Y-87487923D01*
X144480923Y-87578899D01*
X144452141Y-87637774D01*
X144424418Y-87694482D01*
X144413500Y-87769418D01*
X144413500Y-88212582D01*
X144424418Y-88287518D01*
X144480924Y-88403102D01*
X144506820Y-88428998D01*
X144513937Y-88442967D01*
X144525025Y-88454055D01*
X144527477Y-88469542D01*
X144534596Y-88483513D01*
X144532143Y-88499000D01*
X144534596Y-88514487D01*
X144527477Y-88528457D01*
X144525025Y-88543945D01*
X144506821Y-88569000D01*
X144494001Y-88581820D01*
X144439487Y-88609596D01*
X144379055Y-88600025D01*
X144353999Y-88581821D01*
X144276102Y-88503924D01*
X144160518Y-88447418D01*
X144085582Y-88436500D01*
X143742418Y-88436500D01*
X143680983Y-88445451D01*
X143667482Y-88447418D01*
X143551899Y-88503923D01*
X143460923Y-88594899D01*
X143430808Y-88656500D01*
X143404418Y-88710482D01*
X143393500Y-88785418D01*
X143393500Y-89228582D01*
X143404418Y-89303518D01*
X143460924Y-89419102D01*
X143534505Y-89492683D01*
X143562281Y-89547198D01*
X143563500Y-89562685D01*
X143563500Y-89673144D01*
X143587386Y-89762288D01*
X143633530Y-89842212D01*
X143923505Y-90132187D01*
X143951281Y-90186702D01*
X143952500Y-90202189D01*
X143952500Y-90661478D01*
X143952501Y-90661484D01*
X143958587Y-90718111D01*
X143958587Y-90718112D01*
X143958588Y-90718114D01*
X144006372Y-90846226D01*
X144088313Y-90955687D01*
X144137653Y-90992622D01*
X144169929Y-91016784D01*
X144197774Y-91037628D01*
X144325886Y-91085412D01*
X144382515Y-91091500D01*
X144973484Y-91091499D01*
X145030114Y-91085412D01*
X145055639Y-91075891D01*
X145070078Y-91070506D01*
X145131207Y-91067884D01*
X145182202Y-91101694D01*
X145190412Y-91113762D01*
X145205255Y-91139470D01*
X145213480Y-91153716D01*
X145325284Y-91265520D01*
X145462216Y-91344577D01*
X145614943Y-91385500D01*
X145614945Y-91385500D01*
X145654454Y-91385500D01*
X145712645Y-91404407D01*
X145748609Y-91453907D01*
X145748609Y-91515093D01*
X145742664Y-91529445D01*
X145690125Y-91632558D01*
X145690123Y-91632561D01*
X145636598Y-91797293D01*
X145636598Y-91797296D01*
X145609602Y-91967737D01*
X145581825Y-92022253D01*
X138951530Y-98652549D01*
X138905386Y-98732473D01*
X138881500Y-98821618D01*
X138881500Y-99366906D01*
X138862593Y-99425097D01*
X138818255Y-99459224D01*
X138804633Y-99464500D01*
X138799326Y-99464500D01*
X138726260Y-99479034D01*
X138669932Y-99516670D01*
X138659755Y-99520612D01*
X138639569Y-99521730D01*
X138620112Y-99527218D01*
X138608518Y-99523450D01*
X138598664Y-99523997D01*
X138586959Y-99516445D01*
X138569000Y-99510610D01*
X138521745Y-99479036D01*
X138521740Y-99479034D01*
X138521737Y-99479033D01*
X138521736Y-99479033D01*
X138448684Y-99464501D01*
X138448674Y-99464500D01*
X137699326Y-99464500D01*
X137699325Y-99464500D01*
X137699315Y-99464501D01*
X137626263Y-99479033D01*
X137626254Y-99479036D01*
X137579000Y-99510610D01*
X137520112Y-99527218D01*
X137469000Y-99510610D01*
X137421745Y-99479036D01*
X137421740Y-99479034D01*
X137421737Y-99479033D01*
X137421736Y-99479033D01*
X137348684Y-99464501D01*
X137348674Y-99464500D01*
X136599326Y-99464500D01*
X136599325Y-99464500D01*
X136599315Y-99464501D01*
X136526263Y-99479033D01*
X136526254Y-99479036D01*
X136479000Y-99510610D01*
X136458976Y-99516257D01*
X136440540Y-99525903D01*
X136431572Y-99523985D01*
X136420112Y-99527218D01*
X136380008Y-99516983D01*
X136374293Y-99514148D01*
X136321740Y-99479034D01*
X136291289Y-99472976D01*
X136279508Y-99467133D01*
X136266580Y-99454480D01*
X136250799Y-99445642D01*
X136245251Y-99433606D01*
X136235780Y-99424337D01*
X136232758Y-99406503D01*
X136225186Y-99390076D01*
X136224500Y-99378444D01*
X136224500Y-95015857D01*
X136223696Y-95012856D01*
X136200614Y-94926712D01*
X136198882Y-94923712D01*
X136198882Y-94923711D01*
X136154471Y-94846790D01*
X136154470Y-94846788D01*
X133742186Y-92434504D01*
X133714409Y-92379987D01*
X133723980Y-92319555D01*
X133767245Y-92276290D01*
X133812190Y-92265500D01*
X134048673Y-92265500D01*
X134048674Y-92265500D01*
X134121740Y-92250966D01*
X134168999Y-92219388D01*
X134227886Y-92202780D01*
X134278999Y-92219388D01*
X134304004Y-92236095D01*
X134326256Y-92250964D01*
X134326257Y-92250964D01*
X134326260Y-92250966D01*
X134381808Y-92262015D01*
X134399315Y-92265498D01*
X134399320Y-92265498D01*
X134399326Y-92265500D01*
X134399327Y-92265500D01*
X135148673Y-92265500D01*
X135148674Y-92265500D01*
X135221740Y-92250966D01*
X135268999Y-92219388D01*
X135327886Y-92202780D01*
X135378999Y-92219388D01*
X135404004Y-92236095D01*
X135426256Y-92250964D01*
X135426257Y-92250964D01*
X135426260Y-92250966D01*
X135481808Y-92262015D01*
X135499315Y-92265498D01*
X135499320Y-92265498D01*
X135499326Y-92265500D01*
X135499327Y-92265500D01*
X136248673Y-92265500D01*
X136248674Y-92265500D01*
X136321740Y-92250966D01*
X136368999Y-92219388D01*
X136427886Y-92202780D01*
X136478999Y-92219388D01*
X136504004Y-92236095D01*
X136526256Y-92250964D01*
X136526257Y-92250964D01*
X136526260Y-92250966D01*
X136581808Y-92262015D01*
X136599315Y-92265498D01*
X136599320Y-92265498D01*
X136599326Y-92265500D01*
X136599327Y-92265500D01*
X137348673Y-92265500D01*
X137348674Y-92265500D01*
X137421740Y-92250966D01*
X137468999Y-92219388D01*
X137527886Y-92202780D01*
X137578999Y-92219388D01*
X137604004Y-92236095D01*
X137626256Y-92250964D01*
X137626257Y-92250964D01*
X137626260Y-92250966D01*
X137681808Y-92262015D01*
X137699315Y-92265498D01*
X137699320Y-92265498D01*
X137699326Y-92265500D01*
X137699327Y-92265500D01*
X138448673Y-92265500D01*
X138448674Y-92265500D01*
X138521740Y-92250966D01*
X138568999Y-92219388D01*
X138627886Y-92202780D01*
X138678999Y-92219388D01*
X138704004Y-92236095D01*
X138726256Y-92250964D01*
X138726257Y-92250964D01*
X138726260Y-92250966D01*
X138781808Y-92262015D01*
X138799315Y-92265498D01*
X138799320Y-92265498D01*
X138799326Y-92265500D01*
X138799327Y-92265500D01*
X139548673Y-92265500D01*
X139548674Y-92265500D01*
X139621740Y-92250966D01*
X139704601Y-92195601D01*
X139759966Y-92112740D01*
X139774500Y-92039674D01*
X139774500Y-89990326D01*
X139759966Y-89917260D01*
X139724000Y-89863432D01*
X139704602Y-89834400D01*
X139704599Y-89834397D01*
X139621742Y-89779035D01*
X139621740Y-89779034D01*
X139621737Y-89779033D01*
X139621736Y-89779033D01*
X139548684Y-89764501D01*
X139548674Y-89764500D01*
X138799326Y-89764500D01*
X138799325Y-89764500D01*
X138799315Y-89764501D01*
X138726263Y-89779033D01*
X138726254Y-89779036D01*
X138679000Y-89810610D01*
X138620112Y-89827218D01*
X138569000Y-89810610D01*
X138521745Y-89779036D01*
X138521740Y-89779034D01*
X138521737Y-89779033D01*
X138521736Y-89779033D01*
X138448684Y-89764501D01*
X138448674Y-89764500D01*
X137699326Y-89764500D01*
X137699325Y-89764500D01*
X137699315Y-89764501D01*
X137626263Y-89779033D01*
X137626254Y-89779036D01*
X137579000Y-89810610D01*
X137520112Y-89827218D01*
X137469000Y-89810610D01*
X137421745Y-89779036D01*
X137421740Y-89779034D01*
X137421737Y-89779033D01*
X137421736Y-89779033D01*
X137348684Y-89764501D01*
X137348674Y-89764500D01*
X136599326Y-89764500D01*
X136599325Y-89764500D01*
X136599315Y-89764501D01*
X136526263Y-89779033D01*
X136526254Y-89779036D01*
X136479000Y-89810610D01*
X136420112Y-89827218D01*
X136369000Y-89810610D01*
X136321745Y-89779036D01*
X136321740Y-89779034D01*
X136321737Y-89779033D01*
X136321736Y-89779033D01*
X136248684Y-89764501D01*
X136248674Y-89764500D01*
X135499326Y-89764500D01*
X135499325Y-89764500D01*
X135499315Y-89764501D01*
X135426263Y-89779033D01*
X135426254Y-89779036D01*
X135379000Y-89810610D01*
X135320112Y-89827218D01*
X135269000Y-89810610D01*
X135221745Y-89779036D01*
X135221740Y-89779034D01*
X135221737Y-89779033D01*
X135221736Y-89779033D01*
X135148684Y-89764501D01*
X135148674Y-89764500D01*
X134399326Y-89764500D01*
X134399325Y-89764500D01*
X134399315Y-89764501D01*
X134326263Y-89779033D01*
X134326254Y-89779036D01*
X134279000Y-89810610D01*
X134220112Y-89827218D01*
X134169000Y-89810610D01*
X134121745Y-89779036D01*
X134121740Y-89779034D01*
X134121737Y-89779033D01*
X134121736Y-89779033D01*
X134048684Y-89764501D01*
X134048674Y-89764500D01*
X133299326Y-89764500D01*
X133299325Y-89764500D01*
X133299315Y-89764501D01*
X133226263Y-89779033D01*
X133226257Y-89779035D01*
X133143400Y-89834397D01*
X133143397Y-89834400D01*
X133088035Y-89917257D01*
X133088033Y-89917263D01*
X133073501Y-89990315D01*
X133073500Y-89990327D01*
X133073500Y-90083810D01*
X133054593Y-90142001D01*
X133005093Y-90177965D01*
X132943907Y-90177965D01*
X132904496Y-90153814D01*
X132576332Y-89825650D01*
X132548555Y-89771133D01*
X132548555Y-89740166D01*
X132570500Y-89601611D01*
X132570500Y-89428389D01*
X132570500Y-89428385D01*
X132543402Y-89257297D01*
X132543401Y-89257293D01*
X132489876Y-89092561D01*
X132489874Y-89092558D01*
X132489873Y-89092557D01*
X132489873Y-89092555D01*
X132411232Y-88938212D01*
X132309414Y-88798072D01*
X132186928Y-88675586D01*
X132046788Y-88573768D01*
X132046787Y-88573767D01*
X132046785Y-88573766D01*
X131892441Y-88495125D01*
X131738906Y-88445237D01*
X131689407Y-88409273D01*
X131670500Y-88351083D01*
X131670500Y-87274500D01*
X131689407Y-87216309D01*
X131738907Y-87180345D01*
X131769500Y-87175500D01*
X135173988Y-87175500D01*
X135232179Y-87194407D01*
G37*
%TD.AperFunction*%
%TD*%
M02*
