%TF.GenerationSoftware,KiCad,Pcbnew,9.0.8+dfsg-1*%
%TF.CreationDate,2026-10-03T00:29:59-07:00*%
%TF.ProjectId,vagabond1,76616761-626f-46e6-9431-2e6b69636164,rev?*%
%TF.SameCoordinates,Original*%
%TF.FileFunction,Legend,Top*%
%TF.FilePolarity,Positive*%
%FSLAX46Y46*%
G04 Gerber Fmt 4.6, Leading zero omitted, Abs format (unit mm)*
G04 Created by KiCad (PCBNEW 9.0.8+dfsg-1) date 2026-10-03 00:29:59*
%MOMM*%
%LPD*%
G01*
G04 APERTURE LIST*
%ADD10C,0.200000*%
%ADD11C,0.150000*%
%ADD12C,0.120000*%
G04 APERTURE END LIST*
D10*
X136926816Y-96067219D02*
X137260149Y-97067219D01*
X137260149Y-97067219D02*
X137593482Y-96067219D01*
X138117292Y-96067219D02*
X138212530Y-96067219D01*
X138212530Y-96067219D02*
X138307768Y-96114838D01*
X138307768Y-96114838D02*
X138355387Y-96162457D01*
X138355387Y-96162457D02*
X138403006Y-96257695D01*
X138403006Y-96257695D02*
X138450625Y-96448171D01*
X138450625Y-96448171D02*
X138450625Y-96686266D01*
X138450625Y-96686266D02*
X138403006Y-96876742D01*
X138403006Y-96876742D02*
X138355387Y-96971980D01*
X138355387Y-96971980D02*
X138307768Y-97019600D01*
X138307768Y-97019600D02*
X138212530Y-97067219D01*
X138212530Y-97067219D02*
X138117292Y-97067219D01*
X138117292Y-97067219D02*
X138022054Y-97019600D01*
X138022054Y-97019600D02*
X137974435Y-96971980D01*
X137974435Y-96971980D02*
X137926816Y-96876742D01*
X137926816Y-96876742D02*
X137879197Y-96686266D01*
X137879197Y-96686266D02*
X137879197Y-96448171D01*
X137879197Y-96448171D02*
X137926816Y-96257695D01*
X137926816Y-96257695D02*
X137974435Y-96162457D01*
X137974435Y-96162457D02*
X138022054Y-96114838D01*
X138022054Y-96114838D02*
X138117292Y-96067219D01*
X138879197Y-96971980D02*
X138926816Y-97019600D01*
X138926816Y-97019600D02*
X138879197Y-97067219D01*
X138879197Y-97067219D02*
X138831578Y-97019600D01*
X138831578Y-97019600D02*
X138879197Y-96971980D01*
X138879197Y-96971980D02*
X138879197Y-97067219D01*
X139879196Y-97067219D02*
X139307768Y-97067219D01*
X139593482Y-97067219D02*
X139593482Y-96067219D01*
X139593482Y-96067219D02*
X139498244Y-96210076D01*
X139498244Y-96210076D02*
X139403006Y-96305314D01*
X139403006Y-96305314D02*
X139307768Y-96352933D01*
D11*
X145395779Y-108561866D02*
X146157684Y-108561866D01*
X145776731Y-108942819D02*
X145776731Y-108180914D01*
D10*
X134426816Y-94067219D02*
X134760149Y-95067219D01*
X134760149Y-95067219D02*
X135093482Y-94067219D01*
X135855387Y-95067219D02*
X135855387Y-94543409D01*
X135855387Y-94543409D02*
X135807768Y-94448171D01*
X135807768Y-94448171D02*
X135712530Y-94400552D01*
X135712530Y-94400552D02*
X135522054Y-94400552D01*
X135522054Y-94400552D02*
X135426816Y-94448171D01*
X135855387Y-95019600D02*
X135760149Y-95067219D01*
X135760149Y-95067219D02*
X135522054Y-95067219D01*
X135522054Y-95067219D02*
X135426816Y-95019600D01*
X135426816Y-95019600D02*
X135379197Y-94924361D01*
X135379197Y-94924361D02*
X135379197Y-94829123D01*
X135379197Y-94829123D02*
X135426816Y-94733885D01*
X135426816Y-94733885D02*
X135522054Y-94686266D01*
X135522054Y-94686266D02*
X135760149Y-94686266D01*
X135760149Y-94686266D02*
X135855387Y-94638647D01*
X136760149Y-94400552D02*
X136760149Y-95210076D01*
X136760149Y-95210076D02*
X136712530Y-95305314D01*
X136712530Y-95305314D02*
X136664911Y-95352933D01*
X136664911Y-95352933D02*
X136569673Y-95400552D01*
X136569673Y-95400552D02*
X136426816Y-95400552D01*
X136426816Y-95400552D02*
X136331578Y-95352933D01*
X136760149Y-95019600D02*
X136664911Y-95067219D01*
X136664911Y-95067219D02*
X136474435Y-95067219D01*
X136474435Y-95067219D02*
X136379197Y-95019600D01*
X136379197Y-95019600D02*
X136331578Y-94971980D01*
X136331578Y-94971980D02*
X136283959Y-94876742D01*
X136283959Y-94876742D02*
X136283959Y-94591028D01*
X136283959Y-94591028D02*
X136331578Y-94495790D01*
X136331578Y-94495790D02*
X136379197Y-94448171D01*
X136379197Y-94448171D02*
X136474435Y-94400552D01*
X136474435Y-94400552D02*
X136664911Y-94400552D01*
X136664911Y-94400552D02*
X136760149Y-94448171D01*
X137664911Y-95067219D02*
X137664911Y-94543409D01*
X137664911Y-94543409D02*
X137617292Y-94448171D01*
X137617292Y-94448171D02*
X137522054Y-94400552D01*
X137522054Y-94400552D02*
X137331578Y-94400552D01*
X137331578Y-94400552D02*
X137236340Y-94448171D01*
X137664911Y-95019600D02*
X137569673Y-95067219D01*
X137569673Y-95067219D02*
X137331578Y-95067219D01*
X137331578Y-95067219D02*
X137236340Y-95019600D01*
X137236340Y-95019600D02*
X137188721Y-94924361D01*
X137188721Y-94924361D02*
X137188721Y-94829123D01*
X137188721Y-94829123D02*
X137236340Y-94733885D01*
X137236340Y-94733885D02*
X137331578Y-94686266D01*
X137331578Y-94686266D02*
X137569673Y-94686266D01*
X137569673Y-94686266D02*
X137664911Y-94638647D01*
X138141102Y-95067219D02*
X138141102Y-94067219D01*
X138141102Y-94448171D02*
X138236340Y-94400552D01*
X138236340Y-94400552D02*
X138426816Y-94400552D01*
X138426816Y-94400552D02*
X138522054Y-94448171D01*
X138522054Y-94448171D02*
X138569673Y-94495790D01*
X138569673Y-94495790D02*
X138617292Y-94591028D01*
X138617292Y-94591028D02*
X138617292Y-94876742D01*
X138617292Y-94876742D02*
X138569673Y-94971980D01*
X138569673Y-94971980D02*
X138522054Y-95019600D01*
X138522054Y-95019600D02*
X138426816Y-95067219D01*
X138426816Y-95067219D02*
X138236340Y-95067219D01*
X138236340Y-95067219D02*
X138141102Y-95019600D01*
X139188721Y-95067219D02*
X139093483Y-95019600D01*
X139093483Y-95019600D02*
X139045864Y-94971980D01*
X139045864Y-94971980D02*
X138998245Y-94876742D01*
X138998245Y-94876742D02*
X138998245Y-94591028D01*
X138998245Y-94591028D02*
X139045864Y-94495790D01*
X139045864Y-94495790D02*
X139093483Y-94448171D01*
X139093483Y-94448171D02*
X139188721Y-94400552D01*
X139188721Y-94400552D02*
X139331578Y-94400552D01*
X139331578Y-94400552D02*
X139426816Y-94448171D01*
X139426816Y-94448171D02*
X139474435Y-94495790D01*
X139474435Y-94495790D02*
X139522054Y-94591028D01*
X139522054Y-94591028D02*
X139522054Y-94876742D01*
X139522054Y-94876742D02*
X139474435Y-94971980D01*
X139474435Y-94971980D02*
X139426816Y-95019600D01*
X139426816Y-95019600D02*
X139331578Y-95067219D01*
X139331578Y-95067219D02*
X139188721Y-95067219D01*
X139950626Y-94400552D02*
X139950626Y-95067219D01*
X139950626Y-94495790D02*
X139998245Y-94448171D01*
X139998245Y-94448171D02*
X140093483Y-94400552D01*
X140093483Y-94400552D02*
X140236340Y-94400552D01*
X140236340Y-94400552D02*
X140331578Y-94448171D01*
X140331578Y-94448171D02*
X140379197Y-94543409D01*
X140379197Y-94543409D02*
X140379197Y-95067219D01*
X141283959Y-95067219D02*
X141283959Y-94067219D01*
X141283959Y-95019600D02*
X141188721Y-95067219D01*
X141188721Y-95067219D02*
X140998245Y-95067219D01*
X140998245Y-95067219D02*
X140903007Y-95019600D01*
X140903007Y-95019600D02*
X140855388Y-94971980D01*
X140855388Y-94971980D02*
X140807769Y-94876742D01*
X140807769Y-94876742D02*
X140807769Y-94591028D01*
X140807769Y-94591028D02*
X140855388Y-94495790D01*
X140855388Y-94495790D02*
X140903007Y-94448171D01*
X140903007Y-94448171D02*
X140998245Y-94400552D01*
X140998245Y-94400552D02*
X141188721Y-94400552D01*
X141188721Y-94400552D02*
X141283959Y-94448171D01*
X142283959Y-95067219D02*
X141712531Y-95067219D01*
X141998245Y-95067219D02*
X141998245Y-94067219D01*
X141998245Y-94067219D02*
X141903007Y-94210076D01*
X141903007Y-94210076D02*
X141807769Y-94305314D01*
X141807769Y-94305314D02*
X141712531Y-94352933D01*
D12*
%TO.C,R1*%
X133846359Y-104880000D02*
X134153641Y-104880000D01*
X133846359Y-104120000D02*
X134153641Y-104120000D01*
%TO.C,C8*%
X133902164Y-102740000D02*
X134117836Y-102740000D01*
X133902164Y-103460000D02*
X134117836Y-103460000D01*
%TO.C,U1*%
X132914000Y-100725000D02*
X132914000Y-91025000D01*
X143234000Y-100715000D02*
X143234000Y-91015000D01*
X133064000Y-101305000D02*
X132734000Y-101545000D01*
X132734000Y-101065000D01*
X133064000Y-101305000D01*
G36*
X133064000Y-101305000D02*
G01*
X132734000Y-101545000D01*
X132734000Y-101065000D01*
X133064000Y-101305000D01*
G37*
%TO.C,X1*%
X133172000Y-106376000D02*
X133172000Y-108976000D01*
X133172000Y-108976000D02*
X136372000Y-108976000D01*
%TO.C,U3*%
X136040500Y-102670000D02*
X135800500Y-102340000D01*
X136280500Y-102340000D01*
X136040500Y-102670000D01*
G36*
X136040500Y-102670000D02*
G01*
X135800500Y-102340000D01*
X136280500Y-102340000D01*
X136040500Y-102670000D01*
G37*
D11*
X140003000Y-105795000D02*
X140003000Y-105570000D01*
X140003000Y-102445000D02*
X140003000Y-102670000D01*
X136653000Y-105795000D02*
X140003000Y-105795000D01*
X136653000Y-105570000D02*
X136653000Y-105795000D01*
X136653000Y-102445000D02*
X140003000Y-102445000D01*
X136653000Y-102445000D02*
X136653000Y-102670000D01*
D12*
%TO.C,C1*%
X145188000Y-107408420D02*
X145188000Y-107689580D01*
X144168000Y-107408420D02*
X144168000Y-107689580D01*
%TO.C,C2*%
X145038000Y-98131836D02*
X145038000Y-97916164D01*
X144318000Y-98131836D02*
X144318000Y-97916164D01*
%TO.C,C3*%
X145188000Y-91306580D02*
X145188000Y-91025420D01*
X144168000Y-91306580D02*
X144168000Y-91025420D01*
%TO.C,C4*%
X133615420Y-88628000D02*
X133896580Y-88628000D01*
X133615420Y-87608000D02*
X133896580Y-87608000D01*
%TO.C,C5*%
X145188000Y-100296420D02*
X145188000Y-100577580D01*
X144168000Y-100296420D02*
X144168000Y-100577580D01*
%TO.C,C6*%
X137418000Y-107275836D02*
X137418000Y-107060164D01*
X136698000Y-107275836D02*
X136698000Y-107060164D01*
%TO.C,C7*%
X133874164Y-105284000D02*
X134089836Y-105284000D01*
X133874164Y-106004000D02*
X134089836Y-106004000D01*
%TO.C,J1*%
X142322000Y-89445000D02*
X139922000Y-89445000D01*
X142322000Y-87045000D02*
X142322000Y-89445000D01*
X139922000Y-89445000D02*
X139922000Y-87045000D01*
X139922000Y-87045000D02*
X142322000Y-87045000D01*
%TO.C,J2*%
X139020000Y-89445000D02*
X136620000Y-89445000D01*
X139020000Y-87045000D02*
X139020000Y-89445000D01*
X136620000Y-89445000D02*
X136620000Y-87045000D01*
X136620000Y-87045000D02*
X139020000Y-87045000D01*
%TO.C,J5*%
X143592000Y-108876000D02*
X141192000Y-108876000D01*
X143592000Y-106476000D02*
X143592000Y-108876000D01*
X141192000Y-108876000D02*
X141192000Y-106476000D01*
X141192000Y-106476000D02*
X143592000Y-106476000D01*
%TO.C,J6*%
X140290000Y-108876000D02*
X137890000Y-108876000D01*
X140290000Y-106476000D02*
X140290000Y-108876000D01*
X137890000Y-108876000D02*
X137890000Y-106476000D01*
X137890000Y-106476000D02*
X140290000Y-106476000D01*
%TO.C,R2*%
X144577641Y-88627000D02*
X144270359Y-88627000D01*
X144577641Y-89387000D02*
X144270359Y-89387000D01*
%TO.C,R3*%
X144577641Y-87611000D02*
X144270359Y-87611000D01*
X144577641Y-88371000D02*
X144270359Y-88371000D01*
%TO.C,U2*%
X142279000Y-105077000D02*
X141949000Y-105317000D01*
X141949000Y-104837000D01*
X142279000Y-105077000D01*
G36*
X142279000Y-105077000D02*
G01*
X141949000Y-105317000D01*
X141949000Y-104837000D01*
X142279000Y-105077000D01*
G37*
X145349000Y-103914500D02*
X145349000Y-104564500D01*
X145349000Y-103914500D02*
X145349000Y-103264500D01*
X142229000Y-103914500D02*
X142229000Y-104564500D01*
X142229000Y-103914500D02*
X142229000Y-103264500D01*
%TD*%
M02*
