M48
; DRILL file {KiCad 9.0.8+dfsg-1} date 2026-10-03T00:30:06-0700
; FORMAT={-:-/ absolute / metric / decimal}
; #@! TF.CreationDate,2026-10-03T00:30:06-07:00
; #@! TF.GenerationSoftware,Kicad,Pcbnew,9.0.8+dfsg-1
; #@! TF.FileFunction,Plated,1,2,PTH
FMAT,2
METRIC
; #@! TA.AperFunction,Plated,PTH,ViaDrill
T1C0.254
; #@! TA.AperFunction,Plated,PTH,ViaDrill
T2C0.400
; #@! TA.AperFunction,Plated,PTH,ComponentDrill
T3C1.000
%
G90
G05
T1
X132.6Y-108.4
X133.5Y-102.3
X135.28Y-105.898
X136.55Y-105.898
X137.058Y-108.438
X137.566Y-104.374
X137.566Y-105.136
X145.44Y-103.358
T2
X132.613Y-100.564
X133.121Y-99.04
X134.772Y-89.388
X135.788Y-87.61
X135.788Y-89.388
X136.042Y-92.944
X138.455Y-98.786
X139.09Y-103.104
X140.36Y-98.786
X141.376Y-92.944
X141.376Y-102.342
X142.519Y-98.786
X142.646Y-92.944
X142.9Y-88.499
X142.9Y-89.388
X143.789Y-104.882
X145.694Y-90.785
T3
X131.47Y-89.515
X131.47Y-92.055
X131.47Y-94.595
X131.47Y-97.135
X131.47Y-99.675
X131.47Y-102.215
X131.47Y-104.755
X131.47Y-107.295
X146.71Y-89.515
X146.71Y-92.055
X146.71Y-94.595
X146.71Y-97.135
X146.71Y-99.675
X146.71Y-102.215
X146.71Y-104.755
X146.71Y-107.295
M30
